<?xml version="1.0" encoding="utf-8"?>
<!-- Generator: Adobe Illustrator 27.5.0, SVG Export Plug-In . SVG Version: 6.00 Build 0)  -->
<svg version="1.1" xmlns="http://www.w3.org/2000/svg" xmlns:xlink="http://www.w3.org/1999/xlink" x="0px" y="0px"
	 viewBox="0 0 500 500" style="enable-background:new 0 0 500 500;" xml:space="preserve">
<g id="BACKGROUND">
</g>
<g id="OBJECTS">
	<path style="fill:#BBF0E8;" d="M237.465,79.773c0.166-4.288-1.792-8.663-6.026-10.366c-4.166-1.675-8.68,0.197-10.967,3.719
		c-2.823-8.405-11.404-14.592-20.502-13.297c-9.474,1.348-16.164,10.347-15.99,19.615c-3.928-0.984-8.407-1.004-11.215,2.38
		c-2.428,2.925-1.763,6.85,1.03,9.245c4.182,3.587,10.794,2.485,15.795,2.348c8.2-0.224,16.4-0.449,24.6-0.673
		c7.872-0.215,15.745-0.39,23.616-0.646c4.081-0.133,8.08-0.383,9.557-4.866C249.501,80.735,242.348,76.869,237.465,79.773z"/>
	<path style="fill:#FFF08B;" d="M87.207,366.359c45.763-23.861,315.109,0,315.109,0s72.667-2.719,62.667,42.258
		c-10,44.977-38.669,57.643-73.334,58.31s-57.374-49.333-120.02-43.333c-62.646,6-122.676,54.673-179.313,43.34
		C35.68,455.6,50.316,385.594,87.207,366.359z"/>
	<g>
		<path style="fill:#AA95D6;" d="M154.136,361.772c1.009,2.091,4.779,1.557,4.506-1.188c-0.92-9.698-0.137-64.614-21.912-55.861
			c-0.779-6.25-1.599-12.495-2.659-18.707c-0.885-5.216-1.569-11.422-5.261-15.557c-4.285-4.781-10.469-4.899-15.165-1.678
			c-1.674-5.444-3.349-10.888-5.038-16.321c-1.265-4.104-2.294-8.762-5.216-12.087c-5.965-6.83-10.998-1.695-16.152,2.428
			c-8.298-14.363-28.393-43.154-45.686-25.992c-15.977,15.85,0.493,39.674,13.661,52.163c-5.739,3.232-7.539,5.727-2.311,12.534
			c6.447,8.405,16.492,12.937,24.116,20.147c-1.616,0.839-3.171,1.767-4.74,2.901c-0.861,0.63-1.348,2.1-0.567,2.989
			c4.693,5.444,9.762,10.412,15.631,14.596c5.672,4.055,13.414,6.59,18.522,11.422c-3.368,1.222-7.361,3.002-7.895,6.232
			c-0.72,4.275,5.949,8.219,8.779,9.901C121.066,358.248,138.665,356.627,154.136,361.772z"/>
		<path style="fill:#502DA3;" d="M144.612,319.466c-1.334,4.52-2.025,9.167-2.122,13.878c-0.047,2.313,0.054,4.625,0.296,6.926
			c0.147,1.394,1.368,4.503,0.97,5.91c-0.02,0.072-0.032,0.132-0.048,0.197c-9.324-9.26-18.303-18.846-26.946-28.739
			c-1.993-8.422-2.119-16.663-0.604-25.245c0.154-0.874-1.15-1.115-1.349-0.256c-1.664,7.185-1.804,14.62-0.452,21.874
			c0.035,0.187,0.16,0.665,0.302,1.213c-5.16-5.975-10.199-12.059-15.107-18.261c-4.009-5.066-7.832-10.237-11.556-15.464
			c0.012-5.92,0.316-11.81,0.753-17.732c0.065-0.879-1.269-1.168-1.374-0.26c-0.608,5.281-0.839,10.612-0.848,15.93
			c-7.056-10.01-13.74-20.236-20.484-30.451c-0.325-2.67-0.188-5.323,0.448-8.107c0.214-0.938-1.232-1.202-1.461-0.277
			c-0.481,1.936-0.694,3.897-0.664,5.849c-3.906-5.904-7.842-11.798-11.896-17.638c-0.154-0.221-0.557-0.043-0.439,0.219
			c3.527,7.876,7.646,15.58,12.134,23.125c-4.343-1.27-8.723-2.33-13.196-3.082c-0.517-0.087-0.667,0.698-0.152,0.799
			c4.866,0.954,9.645,2.219,14.315,3.881c6.399,10.594,13.516,20.865,20.893,30.771c-0.132,0.123-0.29,0.241-0.483,0.352
			c-0.809,0.463-3.914-0.604-4.786-0.738c-3.51-0.541-7.018-1.102-10.535-1.594c-0.565-0.079-0.731,0.763-0.165,0.874
			c5.699,1.116,11.425,2.101,17.139,3.139c0.119,0.022,0.232,0.011,0.336-0.022c3.459,4.604,6.959,9.134,10.452,13.581
			c4.737,6.03,9.618,11.943,14.627,17.744c-0.887-0.238-1.77-0.562-2.269-0.67c-4.812-1.044-9.626-2.079-14.446-3.085
			c-0.54-0.113-0.686,0.704-0.159,0.837c6.072,1.532,12.158,3.01,18.243,4.487c8.134,9.344,16.597,18.399,25.353,27.164
			c-1.663-0.454-3.316-1.053-4.981-1.433c-5.318-1.213-10.73-1.815-16.164-2.201c-0.191-0.014-0.255,0.274-0.057,0.299
			c8.012,1.01,15.83,2.949,23.451,5.573c4.657,4.61,9.385,9.148,14.194,13.598c1.524,1.411,3.615-1.05,2.089-2.462
			c-4.014-3.714-7.951-7.503-11.849-11.329c-2.398-9.763-2.144-19.111-0.117-28.93C146.072,318.868,144.846,318.673,144.612,319.466
			z"/>
	</g>
	<g>
		<path style="fill:#B5A4DA;" d="M439.916,203.432c0.425-1.656-1.603-3.347-3.14-2.602c-52.663,25.191-74.694,91.2-56.946,145.368
			c0.402,1.201,2.387,0.782,2.193-0.482c0.657,0.044,1.337-0.18,1.908-0.813c17.815-20.334,36.385-41.614,45.482-67.52
			C437.826,253.392,433.755,227.805,439.916,203.432z"/>
		<path style="fill:#502DA3;" d="M406.136,310.503c-3.446,1.248-6.699,2.954-9.826,4.859c-0.959,0.584-4.722,3.814-7.263,5.352
			c1.945-7.225,3.944-14.435,6.058-21.61c7.562-4.788,15.341-9.137,23.371-13.115c0.729-0.361,0.311-1.558-0.444-1.205
			c-4.078,1.906-8.085,3.915-12.023,6.095c-2.268,1.255-6.837,5.171-10.332,6.327c2.541-8.538,5.233-17.029,8.179-25.441
			c8.206-4.602,16.657-8.487,25.419-11.918c0.854-0.334,0.373-1.64-0.493-1.336c-4.219,1.485-8.36,3.141-12.427,5.004
			c-3.204,1.467-6.625,3.972-9.993,4.992c-0.688,0.208-1.168,0.437-1.558,0.611c3.154-8.751,6.712-17.162,10.581-25.384
			c5.357-2.52,10.794-4.723,16.258-7.058c0.517-0.221,0.38-1.161-0.233-1.02c-2.863,0.657-5.6,1.581-8.331,2.669
			c-1.482,0.59-2.946,1.218-4.393,1.888c-0.376,0.174-1.266,0.71-2.21,1.246c2.182-4.557,4.445-9.068,6.784-13.555
			c3.41-1.75,6.824-3.512,10.126-5.442c0.678-0.396,0.072-1.581-0.642-1.229c-2.803,1.379-5.551,2.884-8.287,4.409
			c3.705-7.027,7.555-14.02,11.505-21.087c0.205-0.367-0.356-0.708-0.616-0.392c-5.575,6.761-10.451,14.243-14.807,22.102
			c-0.725-2.161-1.602-4.288-2.868-6.174c-0.147-0.219-0.484-0.033-0.402,0.21c0.847,2.505,1.797,4.903,2.437,7.46
			c-2.596,4.785-4.99,9.709-7.24,14.688c-0.984-0.604-1.23-1.971-1.894-3.255c-1.635-3.161-3.585-6.095-5.822-8.86
			c-0.342-0.423-1.016,0.034-0.698,0.488c3.047,4.347,5.586,8.871,7.382,13.882c0.002,0.007,0.009,0.012,0.012,0.019
			c-3.367,7.634-6.374,15.373-9.165,22.977c-0.94-1.539-1.238-3.848-1.92-5.564c-1.501-3.776-3.313-7.399-5.328-10.923
			c-0.231-0.404-0.928-0.044-0.726,0.38c2.878,6.038,5.225,12.206,7.051,18.624c-0.105,0.291-0.217,0.586-0.322,0.877
			c-3.098,8.596-5.895,17.288-8.511,26.036c-1.466-1.157-4.026-9.042-5.157-10.882c-2.131-3.464-4.645-6.621-7.415-9.587
			c-0.245-0.262-0.69,0.146-0.466,0.425c5.427,6.758,9.592,14.015,12.391,22.212c-1.993,6.752-3.87,13.539-5.695,20.339
			c-0.435-1.497-0.909-3.395-1.003-3.666c-0.629-1.805-1.33-3.587-2.189-5.297c-1.485-2.958-3.319-5.505-5.709-7.793
			c-0.335-0.321-0.905,0.19-0.605,0.553c4.654,5.627,6.846,12.179,8.734,19.07c-1.931,7.265-3.803,14.545-5.665,21.823
			c-0.48,1.877,2.491,2.355,2.974,0.489c1.86-7.193,3.729-14.387,5.648-21.568c5.663-4.609,11.728-8.034,18.276-11.372
			C407.458,311.458,407.046,310.173,406.136,310.503z"/>
	</g>
	<g>
		<path style="fill:#9D12A3;" d="M377.594,375.094c-0.133-0.06-0.254-0.097-0.392-0.139c-2.136-0.804-3.353,1.753-2.371,3.302
			c-0.143,0.901,0.862,1.757,1.721,1.112c30.022,11.186,59-7.59,85.978-18.716c1.755-0.73,1.166-3.255-0.375-3.783
			C433.061,346.667,399.568,353.381,377.594,375.094z"/>
		<path style="fill:#B5A4DA;" d="M377.031,379.525c4.456-2.073,8.905-3.928,13.358-5.616c1.118,0.984,2.928,1.743,3.773,2.274
			c3.084,1.938,6.146,3.917,9.276,5.78c0.794,0.473,1.546-0.707,0.77-1.213c-1.908-1.243-3.853-2.427-5.79-3.625
			c-1.881-1.162-4.737-2.297-6.301-3.867c5.441-2.006,10.892-3.757,16.375-5.292c0.06,0.025,0.124,0.05,0.179,0.077
			c1.809,0.872,3.751,1.411,5.56,2.332c2.973,1.515,5.625,3.428,8.251,5.47c0.529,0.412,1.268-0.462,0.76-0.91
			c-3.343-2.945-7.2-5.264-11.309-6.979c-0.464-0.194-1.015-0.333-1.541-0.51c4.797-1.298,9.618-2.457,14.484-3.466
			c1.143,0.91,2.901,1.6,3.845,2.186c2.577,1.6,5.112,3.354,7.818,4.725c0.589,0.298,1.089-0.47,0.552-0.869
			c-3.178-2.365-7.258-3.887-10.293-6.417c4.412-0.882,8.85-1.686,13.346-2.384c2.162,0.872,3.939,2.133,5.808,3.685
			c0.459,0.381,1.004-0.356,0.647-0.774c-1.184-1.384-2.74-2.419-4.407-3.214c6.552-0.978,13.202-1.802,19.996-2.52
			c0.488-0.051,0.37-0.798-0.085-0.827c-6.986-0.451-14.088-0.269-21.205,0.422c0.991-1.454,1.992-2.9,3.004-4.339
			c0.195-0.277-0.24-0.543-0.44-0.279c-1.205,1.583-2.422,3.156-3.654,4.717c-4.552,0.476-9.107,1.176-13.642,2.053
			c0.353-0.493,0.788-0.968,1.122-1.432c1.229-1.709,2.455-3.421,3.682-5.132c0.252-0.352-0.298-0.679-0.558-0.354
			c-1.764,2.198-3.565,4.372-5.289,6.602c-0.151,0.196-0.327,0.405-0.501,0.625c-5.267,1.07-10.492,2.418-15.65,3.953
			c0.347-0.488,0.833-0.958,1.221-1.48c1.638-2.207,3.269-4.418,4.904-6.627c0.392-0.53-0.464-1.057-0.859-0.545
			c-2.062,2.666-4.304,5.266-6.213,8.043c-0.273,0.398-0.574,0.767-0.815,1.135c-5.231,1.611-10.374,3.448-15.397,5.45
			c0.523-0.96,1.433-1.914,2.055-2.817c1.432-2.076,2.837-4.167,4.182-6.3c0.171-0.272-0.215-0.49-0.408-0.259
			c-2.36,2.827-4.625,5.74-6.838,8.684c-0.372,0.495-0.842,1.005-1.126,1.57c-4.704,1.937-9.306,4.006-13.734,6.222
			C374.605,378.152,375.687,380.15,377.031,379.525z"/>
	</g>
	<g>
		<path style="fill:#502DA3;" d="M132.554,341.935c0.061,0.132,0.128,0.24,0.205,0.362c1.084,2.008,3.681,0.877,3.956-0.936
			c0.7-0.586,0.503-1.891-0.569-1.968c-15.312-28.142-49.499-32.991-77.157-42.299c-1.803-0.601-3.015,1.691-2.2,3.1
			C72.047,326.986,101.725,343.899,132.554,341.935z"/>
		<path style="fill:#B5A4DA;" d="M135.887,338.961c-4.722-1.36-9.297-2.88-13.765-4.529c-0.197-1.476-1.065-3.237-1.354-4.192
			c-1.056-3.486-2.067-6.989-3.206-10.448c-0.289-0.878-1.631-0.481-1.377,0.41c0.623,2.19,1.314,4.36,1.99,6.535
			c0.657,2.111,2.067,4.842,2.217,7.053c-5.422-2.057-10.684-4.313-15.828-6.752c-0.029-0.058-0.061-0.119-0.085-0.175
			c-0.792-1.845-1.905-3.527-2.664-5.408c-1.249-3.094-1.995-6.278-2.636-9.542c-0.129-0.658-1.26-0.483-1.17,0.188
			c0.59,4.416,1.979,8.697,3.953,12.688c0.223,0.451,0.548,0.917,0.828,1.395c-4.472-2.168-8.869-4.458-13.203-6.889
			c-0.266-1.437-1.139-3.111-1.466-4.173c-0.894-2.898-1.656-5.885-2.799-8.696c-0.249-0.612-1.13-0.36-0.987,0.294
			c0.846,3.87,2.926,7.695,3.555,11.597c-3.908-2.229-7.785-4.535-11.635-6.959c-1.059-2.077-1.573-4.195-1.965-6.592
			c-0.096-0.589-0.992-0.39-0.996,0.16c-0.015,1.821,0.48,3.624,1.217,5.317c-5.585-3.561-11.144-7.304-16.742-11.221
			c-0.402-0.281-0.803,0.36-0.479,0.68c4.975,4.924,10.453,9.448,16.277,13.597c-1.701,0.447-3.406,0.881-5.114,1.303
			c-0.329,0.081-0.175,0.567,0.149,0.5c1.948-0.404,3.898-0.792,5.853-1.161c3.747,2.628,7.643,5.09,11.641,7.403
			c-0.59,0.141-1.23,0.214-1.786,0.345c-2.049,0.483-4.097,0.971-6.146,1.456c-0.421,0.1-0.221,0.707,0.189,0.634
			c2.773-0.501,5.559-0.959,8.323-1.511c0.242-0.048,0.513-0.091,0.788-0.143c4.677,2.649,9.504,5.06,14.403,7.286
			c-0.582,0.141-1.257,0.176-1.892,0.316c-2.684,0.59-5.366,1.189-8.049,1.783c-0.644,0.143-0.343,1.101,0.29,0.975
			c3.305-0.659,6.704-1.149,9.966-1.992c0.468-0.121,0.937-0.202,1.36-0.322c5.005,2.217,10.09,4.207,15.195,5.992
			c-1.025,0.381-2.337,0.504-3.4,0.777c-2.442,0.627-4.875,1.282-7.29,2.009c-0.308,0.092-0.159,0.511,0.138,0.463
			c3.636-0.585,7.257-1.297,10.859-2.066c0.606-0.129,1.295-0.205,1.88-0.446c4.82,1.625,9.651,3.084,14.446,4.318
			C136.817,341.589,137.311,339.371,135.887,338.961z"/>
	</g>
	<g>
		<path style="fill:#9D12A3;" d="M131.91,335.368c-11.708-4.821-24.081-7.905-36.698-9.032c-28.34-2.519-57.339,5.425-85.075,10.245
			c-2.115,0.369-2.592,3.177-0.923,4.386c45.391,33.001,108.012,35.446,158.914,13.954c0.363-0.146,0.567-0.445,0.662-0.774
			c2.089-0.65,2.833-3.976,0.262-4.509C155.88,346.858,144.267,340.458,131.91,335.368z"/>
		<path style="fill:#B5A4DA;" d="M165.895,352.103c-5.214-0.408-10.423-0.852-15.635-1.279c-1.885-2.666-3.756-5.344-5.728-7.944
			c-0.542-0.714-1.539,0.171-1.049,0.886c1.603,2.34,3.288,4.626,4.971,6.911c-5.258-0.431-10.518-0.845-15.773-1.29
			c-3.645-3.996-7.442-7.864-11.525-11.413c-0.621-0.54-1.584,0.513-0.98,1.084c3.502,3.313,6.941,6.648,10.253,10.135
			c-9.387-0.797-18.772-1.606-28.156-2.43c-1.935-5.89-7.198-12.11-10.456-17.222c-0.521-0.817-1.903-0.203-1.391,0.657
			c1.676,2.816,3.394,5.606,5.111,8.397c1.585,2.576,4.015,5.227,3.754,7.906c-7.766-0.684-15.533-1.353-23.298-2.051
			c-5.204-4.097-9.023-8.859-12.714-14.387c-0.457-0.686-1.549,0.054-1.198,0.77c2.554,5.216,6.457,9.66,10.927,13.347
			c-8.032-0.724-16.063-1.45-24.094-2.182c-4.857-3.109-8.256-6.946-10.746-12.293c-0.403-0.865-1.649-0.244-1.322,0.624
			c1.722,4.569,4.858,8.542,8.818,11.373c-12.15-1.108-24.302-2.22-36.456-3.324c-0.625-0.057-0.68,0.876-0.069,0.964
			c12.34,1.761,24.716,3.367,37.114,4.849c-3.92,2.318-7.519,5.042-10.779,8.293c-0.297,0.297,0.1,0.787,0.426,0.505
			c3.889-3.353,8.076-6.182,12.629-8.52c7.845,0.928,15.7,1.788,23.561,2.612c-4.839,2.498-9.592,5.257-13.868,8.592
			c-0.358,0.279,0.032,0.909,0.436,0.679c5.425-3.097,10.727-6.251,16.346-8.962c7.525,0.777,15.057,1.509,22.591,2.198
			c-2.199,2.08-5.984,3.537-8.52,5.076c-2.615,1.587-5.233,3.162-7.781,4.855c-0.458,0.304,0.038,1.055,0.518,0.806
			c3.996-2.076,7.872-4.383,11.77-6.637c2.185-1.263,4.741-2.365,6.881-3.853c9.676,0.871,19.357,1.665,29.038,2.403
			c-5.956,2.777-11.923,5.53-17.884,8.295c-0.455,0.211-0.126,0.897,0.331,0.701c6.836-2.921,13.661-5.867,20.507-8.764
			c5.37,0.403,10.736,0.723,16.105,1.087c-3.258,2.003-6.516,4.008-9.774,6.011c-0.452,0.278-0.117,1.028,0.358,0.759
			c3.89-2.206,7.781-4.412,11.671-6.618c4.963,0.331,9.928,0.707,14.889,1.005C167.388,354.816,167.58,352.235,165.895,352.103z"/>
	</g>
	<g>
		<path style="fill:#502DA3;" d="M399.035,375.943c5.121-4.24,6.426-9.546,9.194-15.307c5.112-10.678,18.222-3.27,27.188-5.109
			c5.495-1.112,10.644-4.128,14.432-8.23c4.766-5.133,6.405-11.267,7.196-18.063c1.224-10.668,2.375-18.149,11.145-25.165
			c8.673-6.944,20.174-13.017,20.232-25.667c0.053-12.355-10.818-21.782-22.567-22.894c-13.985-1.313-27.572,7.137-35.09,18.542
			c-4.026,6.124-5.091,12.93-7.74,19.588c-5.062,12.779-17.196,6.028-27.124,9.629c-6.146,2.233-10.519,6.877-13.152,12.779
			c-1.768,3.9-2.257,8.296-3.989,12.19c-3.029,6.796-7.047,7.966-13.006,9.69c-13.78,4.026-21.662,18.007-19.511,31.762
			c-0.669,0.592-1.052,1.557-0.645,2.643c4.884,12.899,23.426,11.592,34.601,10.546
			C386.894,382.237,393.772,380.318,399.035,375.943z"/>
		<path style="fill:#B5A4DA;" d="M352.114,377.314c2.681-2.377,5.399-4.72,8.13-7.05c5.628-0.897,10.99-0.593,16.653,0.259
			c0.981,0.147,1.383-1.463,0.399-1.719c-4.677-1.219-9.519-1.394-14.298-0.877c4.941-4.171,9.935-8.292,14.953-12.389
			c8.966-0.056,17.409,1.152,26.164,3.25c1.114,0.267,1.791-1.349,0.642-1.715c-7.853-2.501-16.184-3.533-24.429-3.472
			c6.441-5.247,12.898-10.479,19.288-15.771c0.093,0.013,0.181,0.046,0.281,0.027c9.479-1.802,18.046-1.275,27.313,1.289
			c1.173,0.325,1.852-1.367,0.673-1.797c-8.009-2.929-16.905-3.515-25.303-1.981c2.087-1.742,4.168-3.488,6.234-5.25
			c6.03-5.143,12.019-10.331,17.974-15.558c0.004,0,0.006,0.002,0.01,0.001c6.226-0.516,12.071,0.102,18.234,0.818
			c0.864,0.1,1.236-1.3,0.354-1.522c-5.349-1.345-10.978-1.511-16.485-1.143c6.587-5.802,13.125-11.66,19.603-17.584
			c0.134,0.112,0.305,0.186,0.497,0.161c4.746-0.586,9.381-0.496,14.131-0.12c0.828,0.065,0.941-1.158,0.126-1.278
			c-4.467-0.659-8.982-0.523-13.448,0.048c6.22-5.704,12.402-11.452,18.489-17.305c0.566-0.545-0.199-1.48-0.794-0.943
			c-5.538,4.983-11.141,9.888-16.773,14.759c1.136-4.379,1.979-8.796,2.433-13.34c0.047-0.465-0.665-0.533-0.721-0.071
			c-0.611,5.012-1.659,9.922-3.221,14.705c-6.76,5.83-13.583,11.586-20.426,17.318c1.317-4.858,2.596-9.736,3.672-14.643
			c0.07-0.323-0.414-0.576-0.641-0.338c-0.461,0.578-1.008,1.059-1.64,1.441c-0.114,0.084,0.014,0.291,0.136,0.213
			c1.814-1.162,0.641,0.632,0.357,1.685c-0.507,1.879-1.148,3.732-1.714,5.594c-0.796,2.617-1.569,5.242-2.339,7.867
			c-7.916,6.617-15.866,13.194-23.809,19.777c1.515-4.729,2.89-9.503,3.989-14.346c0.126-0.555-0.798-0.762-0.97-0.225
			c-1.797,5.6-3.603,11.177-5.593,16.704c-6.928,5.744-13.839,11.505-20.724,17.297c1.841-4.942,3.682-9.886,5.451-14.854
			c0.246-0.689-0.779-1.067-1.06-0.397c-2.438,5.832-4.81,11.692-7.147,17.565c-5.444,4.595-10.852,9.232-16.236,13.896
			c1.169-5.237,2.493-10.446,3.735-15.663c0.137-0.574-0.713-0.921-0.881-0.33c-1.711,6.005-3.313,12.056-5.173,18.017
			c-2.628,2.288-5.266,4.564-7.874,6.876C349.012,376.379,350.78,378.496,352.114,377.314z"/>
	</g>
	<path style="fill:#BBF0E8;" d="M464.954,107.343c-4.189-2.935-9.456-2.495-13.549,0.161c-5.788-12.215-19.111-17.338-31.835-19.115
		c-9.607-1.341-22.752,0.831-24.781,11.65c-3.26-4.328-8.64-6.996-14.013-4.332c-3.709,1.839-5.34,5.787-4.456,9.47
		c-1.757-0.872-3.715-1.179-5.548-0.064c-1.91,1.161-2.482,3.171-1.951,5.09c-3.824-1.971-10.582-4.32-12.914,1.078
		c-1.765,4.084,2.102,7.814,5.658,9.004c3.683,1.232,7.911,0.804,11.715,0.795c4.567-0.01,9.135-0.026,13.702-0.056
		c10.113-0.065,20.226-0.173,30.337-0.398c9.782-0.218,19.562-0.545,29.333-1.049c4.585-0.236,9.303-0.246,13.854-0.87
		c2.036-0.279,4.337-0.721,5.958-2.104C469.802,113.756,468.087,109.537,464.954,107.343z"/>
	<path style="fill:#BBF0E8;" d="M39.868,54.8c5.588,3.167,14.71,1.964,20.744,1.724c9.519-0.379,19.034-0.87,28.551-1.312
		c4.619-0.215,13.691,1.158,16.829-3.55c2.427-3.641,0.411-8.229-2.634-10.716c-7.677-6.272-21.402-6.483-28.783,0.315
		c-1.153-8.032-9.229-12.45-17.218-11.511c-9.562,1.124-11.078,8.34-9.915,16.476C40.662,39.912,32.128,50.414,39.868,54.8z"/>
	<path style="fill:#BBF0E8;" d="M99.888,149.174c0.166-4.288-1.792-8.663-6.026-10.366c-4.166-1.675-8.68,0.197-10.967,3.719
		c-2.823-8.405-11.404-14.592-20.502-13.298c-9.474,1.348-16.164,10.347-15.99,19.615c-3.928-0.984-8.407-1.003-11.215,2.38
		c-2.428,2.925-1.763,6.849,1.03,9.245c4.182,3.588,10.794,2.485,15.795,2.348c8.2-0.224,16.4-0.449,24.6-0.673
		c7.872-0.215,15.745-0.39,23.616-0.646c4.081-0.133,8.08-0.384,9.557-4.867C111.924,150.135,104.771,146.269,99.888,149.174z"/>
	<path style="fill:#BBF0E8;" d="M472.601,174.86c0.964-4.525-1.297-9.445-5.887-11.22c-5.463-2.113-10.907,1.539-13.118,6.431
		c-3.385-5.037-11.581-1.725-10.474,4.258c-4.161-1.196-9.277,2.29-6.29,6.953c1.877,2.93,6.111,2.71,9.115,2.795
		c6.729,0.191,13.463,0.27,20.194,0.298c5.769,0.025,12.47,0.902,18.143-0.168c2.806-0.529,4.908-2.014,4.778-5.117
		C488.723,171.015,478.269,172.516,472.601,174.86z"/>
	<path style="fill:#BBF0E8;" d="M354.509,32.63c-0.12-5.987-4.202-11.706-10.522-12.516c-6.143-0.787-11.4,3.564-13.131,9.108
		c-2.671-3.097-8.103-1.355-8.134,3.064c-1.609-0.721-3.406-1.132-4.883,0.1c-0.928,0.774-1.24,1.652-1.132,2.566
		c-2.99-0.721-6.565-0.278-7.884,2.738c-1.635,3.739,2.528,5.218,5.462,5.403c8.939,0.563,18.221-0.266,27.179-0.413
		c9.509-0.156,19.017-0.316,28.525-0.479c0.473-0.008,0.877-0.395,0.876-0.876C370.855,32.293,361.353,27.725,354.509,32.63z"/>
	<g>
		<g>
			<g>
				<rect x="98.277" y="136.797" style="fill:#39A2B8;" width="300.56" height="262.258"/>
				<rect x="184.586" y="176.046" style="fill:#26889F;" width="127.942" height="223.009"/>
				<rect x="201.078" y="188.812" style="fill:#E0F9F6;" width="90.445" height="197.477"/>
				<rect x="297.646" y="260.041" style="fill:#84CFCB;" width="7.441" height="32.494"/>
				<rect x="111.039" y="188.812" style="fill:#E0F9F6;" width="58.037" height="197.477"/>
				<rect x="326.217" y="188.812" style="fill:#E0F9F6;" width="58.037" height="197.477"/>
				<path style="fill:#BBF0E8;" d="M247.777,356.914c-13.036-3.295-26.113-9.532-39.526-12.464
					c14.915,14.169,31.936,26.355,49.622,36.557c2.263,1.306,3.2,3.286,3.204,5.281h30.447v-16.1
					C277.183,365.016,262.543,360.647,247.777,356.914z"/>
				<path style="fill:#BBF0E8;" d="M241.905,201.829c16.6,8.514,33.637,16.221,49.618,25.861v-12.016
					c-10.788-5.229-22.681-8.449-34.311-10.978C252.292,203.626,247.132,202.577,241.905,201.829z"/>
				<path style="fill:#BBF0E8;" d="M290.879,242.865c-24.796-16.083-52.717-26.442-77.83-41.967
					c-4.454-2.753-4.322-11.073,1.579-12.08c0.012-0.002,0.025-0.003,0.037-0.006h-13.587v27.401
					c25.264,13.755,50.633,27.335,76.634,39.655c7.145,3.385,1.805,13.54-5.093,12.08c-24.053-5.093-47.175-15.216-71.541-18.832
					v21.554c18.991,2.56,36.735,9.927,54.222,17.574c8.807,3.851,17.566,7.787,26.503,11.332c3.197,1.268,6.48,2.507,9.721,3.85
					v-60.186C291.309,243.128,291.095,243.005,290.879,242.865z"/>
				<path style="fill:#BBF0E8;" d="M259.109,191.605c10.91,2.283,22.005,5.257,32.415,9.598v-12.391h-48.385
					C248.53,189.519,253.878,190.51,259.109,191.605z"/>
				<path style="fill:#BBF0E8;" d="M201.078,286.162v33.04c0.991-0.243,2.106-0.243,3.329,0.096
					c29.781,8.259,57.785,21.653,87.117,31.212v-18.575C262.856,313.918,231.295,301.299,201.078,286.162z"/>
				<path style="fill:#BBF0E8;" d="M201.078,355.887v30.402h39.959C226.926,377.419,213.327,367.27,201.078,355.887z"/>
				<path style="fill:#BBF0E8;" d="M131.403,210.054c-5.124-3.125-3.54-13.179,3.336-12.316c11.42,1.434,23.298,1.461,34.337,4.991
					v-13.917h-58.037v44.025c8.764,2.516,17.259,5.889,26.121,8.43c10.478,3.005,21.278,4.772,31.916,7.201v-18.853
					C156.933,222.295,143.513,217.44,131.403,210.054z"/>
				<path style="fill:#BBF0E8;" d="M111.039,265.374v11.948c19.039,10.748,39.364,19.238,58.037,30.629V283.58
					C149.397,278.657,130.308,271.706,111.039,265.374z"/>
				<path style="fill:#BBF0E8;" d="M111.039,292.393v15.106c16.372,8.257,32.666,16.67,49.164,24.674
					c7.073,3.431,1.845,13.614-5.093,12.08c-14.801-3.273-29.347-7.564-44.071-11.145v12.789
					c19.584,1.687,39.197,7.828,58.037,13.273v-35.527C150.761,311.416,130.429,302.732,111.039,292.393z"/>
				<path style="fill:#BBF0E8;" d="M166.255,385.683c0.579,0.151,1.093,0.359,1.558,0.606h1.264v-13.371
					c-17.746-5.081-36.23-11.153-54.757-13.372C130.445,370.61,147.445,380.766,166.255,385.683z"/>
				<path style="fill:#BBF0E8;" d="M111.039,373.2v13.089h21.594C125.226,382.337,118.048,377.882,111.039,373.2z"/>
				<path style="fill:#BBF0E8;" d="M337.152,344.718c13.316,14.104,29.693,26.266,47.101,34.492v-20.747
					c-7.615-2.314-15.09-5.152-22.633-7.637C353.84,348.264,345.515,345.569,337.152,344.718z"/>
				<path style="fill:#BBF0E8;" d="M326.217,262.602v22.398c14.065-0.822,28.231-0.54,42.296-1.333
					C354.362,276.757,340.449,269.349,326.217,262.602z"/>
				<path style="fill:#BBF0E8;" d="M384.254,276.579v-9.336c-9.157-1.314-18.284-2.888-27.436-4.188
					C365.913,267.669,375.009,272.278,384.254,276.579z"/>
				<path style="fill:#BBF0E8;" d="M356.5,202.536c9.141,4.219,18.256,8.969,27.754,12.494v-7.056
					c-9.745-2.513-19.598-4.554-29.522-6.232C355.327,202.004,355.918,202.268,356.5,202.536z"/>
				<path style="fill:#BBF0E8;" d="M349.633,213.869c-7.635-3.617-16.017-6.589-23.416-10.945v30.083
					c0.339,0.002,0.683,0.018,1.04,0.066c19.052,2.571,38.514,5.687,56.997,11.479v-15.497
					C372.311,225.184,360.865,219.189,349.633,213.869z"/>
				<path style="fill:#BBF0E8;" d="M380.589,317.355c-5.309-1.511-10.597-2.844-15.972-4.065
					c-13.004-2.955-25.995-6.191-38.401-11.053v15.06c0.361,0.097,0.725,0.215,1.092,0.377c18.51,8.155,38.628,12.766,56.944,21.261
					V318.48C382.969,318.081,381.728,317.679,380.589,317.355z"/>
				<path style="fill:#BBF0E8;" d="M382.762,304.225c0.47,0.134,0.973,0.29,1.492,0.454v-9.255
					c-9.961,1.198-19.976,1.581-30.004,1.836c4.622,1.165,9.264,2.233,13.882,3.284
					C373.051,301.664,377.903,302.834,382.762,304.225z"/>
				<path style="fill:#BBF0E8;" d="M326.217,352.355v33.934h43.245C353.428,377.399,338.504,365.765,326.217,352.355z"/>
				<g>
					<path style="fill:#B0DAE3;" d="M85.803,173.166l14.048-64.606h293.535l18.22,63.373c0,0,4.118,26.26-13.178,27.801
						c-11.383,1.014-15.425-12.713-15.425-12.713s-3.564,14.873-16.02,13.656c-16.08-1.571-14.538-15.731-14.538-15.731
						s-2.556,12.669-16.365,12.339c-13.603-0.325-14.516-13.374-14.516-13.374s-1.524,14.629-16.763,14.496
						c-15.187-0.132-17.421-13.833-17.421-13.833s-0.3,16.108-16.363,16.103c-15.448-0.005-17.694-15.976-17.694-15.976
						s0.073,14.201-15.772,14.267c-15.324,0.064-16.002-17.15-16.002-17.15s-3.364,18.864-19.204,16.871
						c-15.119-1.902-17.143-16.035-17.143-16.035s-1.347,15.886-16.87,15.43c-14.135-0.414-17.883-16.266-17.883-16.266
						s-1.002,18.864-19.509,16.86c-15.831-1.714-14.899-18.671-14.899-18.671s-2.81,17.946-18.302,17.88
						C80.668,197.815,85.803,173.166,85.803,173.166z"/>
					<path style="fill:#2B7A8A;" d="M150.683,178.596c-11.664-0.646-23.419-1.227-35.128-0.984c0.165,1.036,0.276,2.074,0.346,3.115
						c0.098-0.456,0.14-0.72,0.14-0.72s-0.933,16.956,14.899,18.671c18.508,2.004,19.509-16.86,19.509-16.86s0.101,0.42,0.325,1.118
						C150.755,181.491,150.714,180.045,150.683,178.596z"/>
					<path style="fill:#2B7A8A;" d="M221.651,180.58c-12.156-0.017-24.298-0.176-36.435-0.513c0.345,1.619,0.566,3.314,0.602,5.017
						c1.34,4.126,5.359,12.2,16.527,13.605c13.475,1.695,17.919-11.695,18.947-15.734
						C221.293,182.114,221.413,181.318,221.651,180.58z"/>
					<path style="fill:#2B7A8A;" d="M286.843,180.207c-11.039,0.075-22.078,0.174-33.118,0.254c0.177,0.691,0.279,1.407,0.27,2.142
						c-0.015,1.379-0.075,2.799-0.185,4.225c1.233,4.345,5.291,13.845,17.208,13.849c10.953,0.003,14.574-7.483,15.772-12.248
						C286.422,185.747,286.482,182.917,286.843,180.207z"/>
					<path style="fill:#2B7A8A;" d="M350.59,180.792c-0.015-0.119-0.008-0.232-0.018-0.349c-10.165-0.196-20.33-0.296-30.494-0.324
						c0.245,0.494,0.45,1.012,0.603,1.559c0.106,0.791,0.212,1.583,0.319,2.374c0.041,0.918-0.11,1.813-0.396,2.665
						c0.005,0.31,0.014,0.62,0.016,0.929c0.773-2.134,0.943-3.735,0.943-3.735s0.914,13.049,14.516,13.374
						c10.585,0.253,14.555-7.128,15.833-10.59C351.338,184.802,350.854,182.866,350.59,180.792z"/>
					<path style="fill:#2B7A8A;" d="M382.305,181.35c0.232,1.826,0.404,4.105,0.57,6.139c0.086-0.295,0.128-0.468,0.128-0.468
						s4.043,13.727,15.425,12.713c9.939-0.885,12.802-9.929,13.444-17.466C402.016,182.003,392.161,181.677,382.305,181.35z"/>
					<path style="fill:#2B7A8A;" d="M114.992,179.552c1.905-13.715,3.678-27.48,6.913-40.957c1.76-7.333,4.047-14.471,5.449-21.893
						c0.513-2.716,0.996-5.434,1.518-8.141h-29.02l-14.048,64.606c0,0-0.321,1.54-0.536,3.851
						C95.024,178.621,104.98,179.29,114.992,179.552z"/>
					<path style="fill:#2B7A8A;" d="M158.997,179.765c8.74,0.19,17.478,0.345,26.216,0.502c-0.271-12.381-0.8-24.764-0.303-37.142
						c0.463-11.529,1.208-23.041,1.754-34.565h-28.162c-0.621,3.274-0.867,6.659-1.191,9.784c-0.677,6.535-1.809,12.917-2.8,19.409
						c-2.117,13.869-2.896,27.892-3.165,41.915C153.904,179.684,156.457,179.71,158.997,179.765z"/>
					<path style="fill:#2B7A8A;" d="M253.746,181.232c-1.471-24.297-6.354-48.311-7.351-72.671h-26.27
						c0.436,24.093,1.977,48.191,2.065,72.291C232.709,180.994,243.227,181.12,253.746,181.232z"/>
					<path style="fill:#2B7A8A;" d="M287.084,181.549c4.655,0.039,9.309,0.085,13.964,0.12c6.281,0.048,12.564,0.136,18.847,0.245
						c-0.297-2.079-0.538-4.179-0.771-6.305c-0.931-8.495-2.701-16.956-4.092-25.391c-2.313-14.032-5.389-28.022-9.513-41.658
						h-26.477c0.636,3.553,0.867,7.127,1.164,9.197C283.231,138.828,283.805,160.482,287.084,181.549z"/>
					<path style="fill:#2B7A8A;" d="M351.442,182.65c6.757,0.188,13.512,0.386,20.263,0.591c3.119,0.095,6.237,0.212,9.355,0.339
						c-2.751-10.321-4.115-21.234-6.702-31.361c-2.301-9.006-4.601-18.041-6.354-27.172c-1.015-5.287-1.009-11.166-2.395-16.486
						H339.66c2.43,11.349,2.97,23.178,4.396,34.623C345.698,156.375,349.734,169.44,351.442,182.65z"/>
				</g>
			</g>
			<g>
				<polygon style="fill:#E3E3E3;" points="278.873,290.735 219.798,290.735 218.241,288.509 219.798,253.462 277.317,250.336 
					278.873,253.462 				"/>
				<rect x="218.241" y="250.336" style="fill:#FFFFFF;" width="59.076" height="37.273"/>
				<path style="fill:#2E0063;" d="M274.332,251.888c-4.906-6.12-9.626-12.616-15.072-18.244c-1.811-1.872-6.743-7.084-9.64-6.847
					c-3.45,0.283-10.441,7.639-12.899,9.806c-5.269,4.645-9.934,9.751-13.799,15.6c-0.726-0.41-1.687-0.026-1.958,0.82
					c-0.344,1.074,0.625,2.066,1.681,2.048c1.017-0.017,1.919-1.171,1.333-2.129c-0.097-0.158-0.237-0.258-0.389-0.334
					c3.589-5.057,7.626-9.683,12.22-13.859c1.604-1.458,3.257-2.862,4.94-4.228c1.204-0.976,6.667-6.297,8.57-6.42
					c4.616-0.299,9.953,7.148,12.589,10.375c3.712,4.544,7.373,9.131,11.066,13.691c-0.906,0.259-1.194,1.582-0.494,2.353
					c0.865,0.954,2.557,0.771,3.148-0.394C276.11,253.173,275.357,251.896,274.332,251.888z"/>
				<path style="fill:#39A2B8;" d="M252.016,228.326c-0.484-0.842-1.472-1.359-2.439-1.089c-0.077,0.021-0.148,0.054-0.221,0.083
					c-1.181,0.092-2.192,1.248-1.936,2.614c0.382,2.04,2.96,2.727,4.293,1.136C252.351,230.31,252.522,229.207,252.016,228.326z"/>
				<text transform="matrix(1 0 0 1 233.8537 266.414)"><tspan x="0" y="0" style="font-family:'NeoRetroFill'; font-size:10.6578px;">we are</tspan><tspan x="-1.71" y="12.435" style="font-family:'NeoRetroFill'; font-size:15.0986px;">open</tspan></text>
			</g>
		</g>
		<path style="fill:#39A2B8;" d="M408.256,149.867c-4.064-13.454-7.541-27.204-12.373-40.405c-0.502-1.371-2.557-0.847-2.212,0.61
			c4.332,18.256,11.186,35.854,15.821,54.036c2.281,8.946,4.81,19.829-0.023,28.414c-2.989,5.308-8.946,7.602-14.815,5.912
			c-5.358-1.543-8.235-5.57-11.295-9.914c-0.253-0.359-0.907-0.157-0.754,0.318c0.094,0.291,0.209,0.573,0.318,0.859
			c-0.322,0.072-0.627,0.265-0.846,0.628c-3.254,5.409-7.472,10.111-14.301,10.343c-5.538,0.188-13.505-4.066-14.736-10.075
			c0.138-0.237,0.277-0.466,0.414-0.71c0.707-1.257-1.07-2.776-2.07-1.597c-1.392,1.642-2.604,3.386-3.926,5.083
			c-0.434,0.557-0.933,1.03-1.456,1.47c-0.193-0.171-0.449-0.261-0.747-0.157c-3.173,1.11-6.239,2.321-9.538,2.969
			c-6.439-0.754-10.835-6.369-14.319-11.439c-0.272-0.396-0.958-0.166-0.809,0.341c0.226,0.769,0.52,1.539,0.875,2.301
			c-0.612-0.131-1.287,0.039-1.637,0.669c-3.59,6.461-10.671,10.071-18.048,8.342c-6.827-1.6-11.012-6.241-15.272-11.424
			c-0.275-0.335-0.896,0.025-0.74,0.431c0.293,0.761,0.644,1.492,1.026,2.204c-0.467,0.172-0.858,0.587-0.922,1.236
			c-0.788,7.924-9.773,11.165-16.619,10.001c-3.441-0.585-7.996-2.566-11.298-5.426c0.104-0.187,0.103-0.417-0.115-0.607
			c-1.606-1.401-2.873-2.795-3.458-4.909c-0.055-0.199-0.249-0.284-0.426-0.265c-0.181-0.648-0.304-1.309-0.311-1.99
			c-0.005-0.534-0.881-0.698-0.968-0.131c-0.053,0.34-0.078,0.676-0.09,1.01c-0.072,0.091-0.128,0.197-0.137,0.323
			c-0.525,7.259-8.481,11.065-14.964,10.537c-7.737-0.63-15.064-6.811-15.662-14.913c-0.038-0.509-0.734-0.5-0.785,0
			c-0.095,0.945-0.058,1.873,0.049,2.787c-0.435-0.218-1.007-0.115-1.176,0.517c-0.237,0.885-0.532,1.699-0.859,2.469
			c-0.096-0.003-0.197,0.024-0.296,0.088c-0.92,0.602-1.409,1.95-2,2.864c-0.687,1.062-1.559,1.956-2.278,2.983
			c-8.387,6.137-22.787,1.103-27.687-8.886c0-0.294,0.011-0.585-0.011-0.882c-0.039-0.515-0.377-0.853-0.774-0.988
			c-0.035-0.102-0.08-0.199-0.113-0.301c-0.168-0.514-0.878-0.297-0.795,0.219c0.008,0.048,0.022,0.093,0.03,0.142
			c-0.213,0.123-0.389,0.332-0.481,0.64c-2.032,6.795-6.653,13.141-14.545,12.87c-3.908-0.134-7.886-1.784-11.247-3.632
			c-4.236-2.33-5.43-5.838-7.58-9.84c-0.015-0.028-0.041-0.032-0.061-0.051c0.041-0.292,0.081-0.582,0.122-0.868
			c0.121-0.847-1.053-1.017-1.166-0.158c-0.747,5.667-2.451,10.425-8.004,12.925c-3.326,1.497-7.225,1.865-10.854,1.65
			c-10.014-0.593-13.288-7.333-14.845-16.08c-0.014-0.076-0.113-0.057-0.136,0c-0.205,0.509-0.359,1.017-0.478,1.522
			c-0.315-0.248-0.852-0.218-0.93,0.271c-1.071,6.758-7.627,12.499-14.226,13.433c-11.564,1.637-16.205-9.776-14.85-19.519
			c0.025-0.177-0.209-0.25-0.272-0.075c-3.155,8.848,1.793,20.225,11.478,21.576c4.44,0.619,9.163-0.626,12.759-3.285
			c0.115-0.085,0.209-0.176,0.319-0.263c-0.525,31.144,0.464,62.331,0.581,93.481c0.12,32.04-0.088,64.105,0.614,96.138
			c0.026,1.19,1.833,1.194,1.851,0c0.479-32.037,0.048-64.099-0.055-96.138c-0.102-31.623,0.703-63.292-0.097-94.903
			c-0.011-0.455-0.192-0.796-0.454-1.027c1.565-2.05,2.373-4.371,3.019-7.023c0.307,7.39,8.848,13.661,15.534,14.644
			c4.562,0.671,10.188,0.521,14.12-2.22c4.125-2.876,5.114-8.101,5.797-12.875c2.626,9.246,11.162,14.775,20.958,14.629
			c6.602-0.098,13.081-4.983,14.505-11.393c2.792,5.973,8.805,9.921,15.093,11.163c-0.003,0.021-0.015,0.035-0.017,0.057
			c-1.705,14.839-1.23,30.127-1.269,45.046c-0.04,15.454-0.035,30.908-0.088,46.362c-0.107,31.224-0.083,62.451-0.099,93.675
			c-0.001,2.071,3.223,2.075,3.219,0c-0.056-31.224-0.07-62.451-0.217-93.675c-0.071-15.087-0.136-30.175-0.128-45.263
			c0.009-15.281,0.871-30.618,0.636-45.886c7.965,0.818,15.866-2.809,17.79-12.296c1.89,7.272,9.636,12.966,16.927,13.11
			c6.995,0.138,13.853-2.939,15.181-9.356c2.879,5.924,11.583,10.04,17.164,10.872c7.795,1.162,17.165-2.98,17.886-11.327
			c5.808,7.604,16.673,11.294,24.967,8.033c-1.9,32.653-0.994,65.657-1.161,98.349c-0.17,33.273-0.456,66.549,0.094,99.82
			c0.033,1.966,3.09,1.972,3.058,0c-0.54-33.271-0.251-66.547-0.014-99.82c0.235-33.006,1.572-66.317,0.001-99.299
			c2.915-1.647,5.389-4.287,7.022-8.091c0.986,1.604,2.224,3.122,3.625,4.459c-1.467,15.594-1.113,31.475-1.215,47.127
			c-0.105,16.037-0.14,32.07-0.074,48.107c0.13,31.703,0.517,63.407,0.816,95.109c0.019,1.967,3.077,1.972,3.058,0
			c-0.299-31.702-0.704-63.405-0.728-95.109c-0.012-15.662,0.063-31.326,0.093-46.989c0.03-15.657,0.527-31.532-0.721-47.155
			c2.308,1.897,4.957,3.28,7.644,3.751c8.423,1.476,13.128-1.812,17.191-8.244c1.153,5.864,8.79,10.399,13.984,11.182
			c7.341,1.108,15.71-3.404,18.05-10.6c3.342,5.624,9.64,9.51,16.271,9.052c8.876-0.613,13.476-8.499,14.527-16.606
			C416.638,172.869,411.675,161.186,408.256,149.867z"/>
		<path style="fill:#39A2B8;" d="M306.352,292.543c1.205-10.265,0.326-21.003-0.01-31.307c-0.029-0.906-1.455-0.905-1.408,0
			c0.533,10.305-0.106,20.734,0.655,31.007c-2.436,0.373-4.84,0.538-7.301,0.645c-0.452,0.02-0.603,0.74-0.112,0.83
			c2.581,0.475,5.248,0.375,7.816-0.161c0.547-0.114,0.6-0.651,0.357-1.007C306.349,292.547,306.352,292.546,306.352,292.543z"/>
		<path style="fill:#E0F9F6;" d="M405.577,164.069c-3.036-17.538-9.124-35.17-18.026-50.586c-0.232-0.402-0.944-0.134-0.772,0.326
			c4.558,12.194,8.861,24.555,11.511,37.323c1.418,6.834,10.058,41.652-2.424,40.699c-1.778-0.136-2.081,2.612-0.414,3.063
			C412.203,199.428,406.992,172.238,405.577,164.069z"/>
		<path style="fill:#E0F9F6;" d="M378.093,185.877c-0.999,1.981-1.967,3.499-3.627,5.005c-1.61,1.461-3.59,1.904-5.328,3.075
			c-1.434,0.966-0.959,3.356,0.909,3.355c5.105-0.001,9.532-6.303,9.846-10.948C379.956,185.419,378.517,185.035,378.093,185.877z"
			/>
		<path style="fill:#E0F9F6;" d="M347.707,184.754c-0.686,1.615-1.692,2.93-3.055,4.043c-0.621,0.507-1.353,0.961-2.096,1.268
			c-0.829,0.343-1.716,0.379-2.458,0.915c-1.595,1.15-1.053,3.591,1.005,3.712c2.177,0.127,4.519-2.061,5.802-3.641
			c1.367-1.683,2.128-3.725,2.377-5.87C349.376,184.369,348.029,183.997,347.707,184.754z"/>
		<path style="fill:#E0F9F6;" d="M315.43,185.604c-1.676,1.687-3.354,3.304-5.443,4.481c-2.025,1.142-4.246,1.487-6.341,2.404
			c-1.781,0.779-0.814,3.574,0.96,3.543c4.998-0.088,10.51-4.748,12.515-9.124C317.604,185.852,316.347,184.681,315.43,185.604z"/>
		<path style="fill:#E0F9F6;" d="M282.023,184.348c-0.071-0.82-1.267-1.084-1.502-0.203c-0.625,2.344-1.774,3.994-3.739,5.442
			c-0.809,0.596-1.676,1.105-2.563,1.575c-0.446,0.236-0.896,0.467-1.36,0.667c-0.293,0.126-0.454,0.184-0.547,0.218
			c-0.951-0.832-2.874-0.582-3.097,0.853c-0.269,1.732,0.674,3.093,2.517,3.174c1.818,0.08,3.673-1.284,5.061-2.312
			C279.708,191.602,282.356,188.178,282.023,184.348z"/>
		<path style="fill:#E0F9F6;" d="M248.479,183.9c-1.265,2.014-2.584,3.906-4.551,5.308c-1.878,1.337-4.167,1.605-6.018,2.815
			c-1.717,1.122-0.875,3.361,0.975,3.599c2.698,0.347,5.95-2.069,7.733-3.917c1.934-2.005,3.367-4.516,3.718-7.303
			C250.466,183.358,248.956,183.141,248.479,183.9z"/>
		<path style="fill:#E0F9F6;" d="M214.243,183.045c-1.154,1.873-2.318,3.559-4.106,4.897c-1.729,1.295-3.615,1.786-5.614,2.463
			c-2.935,0.993-1.738,5.137,1.268,4.598c4.964-0.891,9.709-6.21,10.383-11.145C216.327,182.738,214.92,181.947,214.243,183.045z"/>
		<path style="fill:#E0F9F6;" d="M180.663,183.342c-1.082,1.879-2.135,3.426-4.068,4.55c-1.856,1.079-3.736,0.988-5.7,1.561
			c-1.964,0.572-2.057,3.546,0,4.074c5.378,1.381,11.389-4.54,11.83-9.626C182.823,182.775,181.183,182.44,180.663,183.342z"/>
		<path style="fill:#E0F9F6;" d="M146.004,181.574c-0.043-0.965-1.539-1.27-1.759-0.238c-0.433,2.033-1.578,3.986-3.054,5.449
			c-1.582,1.569-3.47,1.806-5.275,2.892c-1.757,1.057-1.069,3.983,1.066,3.937c2.727-0.06,5.261-2.403,6.809-4.481
			C145.476,186.872,146.128,184.37,146.004,181.574z"/>
		<path style="fill:#E0F9F6;" d="M110.832,182.791c-0.066-1.062-1.353-1.389-1.95-0.528c-0.897,1.294-1.494,2.51-2.779,3.509
			c-1.145,0.89-2.46,1.528-3.917,1.658c-1.783,0.16-2.659,2.1-1.442,3.481c0.216,0.289,0.473,0.536,0.77,0.742
			c1.185,0.971,2.925,0.331,3.285-0.877c1.347-0.559,2.609-1.36,3.583-2.414C109.681,186.956,110.955,184.755,110.832,182.791z"/>
	</g>
</g>
</svg>
