<?xml version="1.0" encoding="utf-8"?>
<!-- Generator: Adobe Illustrator 27.5.0, SVG Export Plug-In . SVG Version: 6.00 Build 0)  -->
<svg version="1.1" xmlns="http://www.w3.org/2000/svg" xmlns:xlink="http://www.w3.org/1999/xlink" x="0px" y="0px"
	 viewBox="0 0 500 500" style="enable-background:new 0 0 500 500;" xml:space="preserve">
<g id="Background_2">
</g>
<g id="Background_1">
	<g>
		<polygon style="fill:#49C5CC;" points="163.206,47.432 153.641,64 172.772,64 163.206,47.432 153.641,64 172.772,64 		"/>
		<polygon style="fill:#49C5CC;" points="449.206,51.432 439.641,68 458.772,68 449.206,51.432 439.641,68 458.772,68 		"/>
		<polygon style="fill:#FFAFB2;" points="33.091,32.127 38.869,50.366 51.775,36.243 33.091,32.127 38.869,50.366 51.775,36.243 		
			"/>
		<polygon style="fill:#FFAFB2;" points="315.116,179.001 334.244,178.619 324.35,162.245 315.116,179.001 334.244,178.619 
			324.35,162.245 		"/>
		<polygon style="fill:#FFAFB2;" points="175.999,112.093 188.595,111.842 182.08,101.06 175.999,112.093 188.595,111.842 
			182.08,101.06 		"/>
		<polygon style="fill:#FFD452;" points="175.956,146.752 157.57,152.04 171.344,165.319 175.956,146.752 157.57,152.04 
			171.344,165.319 		"/>
		<polygon style="fill:#FFD452;" points="26.185,99.496 25.355,110.269 35.1,105.601 26.185,99.496 25.355,110.269 35.1,105.601 		
			"/>
		<polygon style="fill:#FFD452;" points="231.185,19.496 230.355,30.269 240.1,25.601 231.185,19.496 230.355,30.269 240.1,25.601 
					"/>
		<polygon style="fill:#FFD452;" points="429.411,120.663 418.632,119.911 423.37,129.623 429.411,120.663 418.632,119.911 
			423.37,129.623 		"/>
		<polygon style="fill:#FFD452;" points="347.956,47.752 329.57,53.041 343.344,66.319 347.956,47.752 329.57,53.041 
			343.344,66.319 		"/>
		<polygon style="fill:#FF6B73;" points="58.783,154.065 47.497,138.618 39.762,156.116 58.783,154.065 47.497,138.618 
			39.762,156.116 		"/>
		<polygon style="fill:#FF6B73;" points="261.856,125.293 277.304,114.007 259.806,106.272 261.856,125.293 277.304,114.007 
			259.806,106.272 		"/>
		
			<line style="fill:none;stroke:#FF6B73;stroke-width:5;stroke-miterlimit:10;" x1="124.611" y1="159.814" x2="138.914" y2="186.186"/>
		
			<line style="fill:none;stroke:#FF6B73;stroke-width:5;stroke-miterlimit:10;" x1="170.338" y1="47.053" x2="155.188" y2="72.947"/>
		
			<line style="fill:none;stroke:#FFD452;stroke-width:5;stroke-miterlimit:10;" x1="334.783" y1="101.788" x2="364.742" y2="100.212"/>
		<line style="fill:none;stroke:#49C5CC;stroke-width:5;stroke-miterlimit:10;" x1="64.575" y1="45.793" x2="54.951" y2="74.207"/>
		
			<line style="fill:none;stroke:#FFAFB2;stroke-width:5;stroke-miterlimit:10;" x1="268.711" y1="78.428" x2="242.814" y2="93.572"/>
		
			<line style="fill:none;stroke:#FFD452;stroke-width:5;stroke-miterlimit:10;" x1="402.974" y1="41.653" x2="396.553" y2="12.348"/>
		<path style="fill:#FF6B73;" d="M112.223,30.441c0,2.932-2.377,5.309-5.309,5.309c-2.932,0-5.309-2.377-5.309-5.309
			s2.377-5.309,5.309-5.309C109.846,25.132,112.223,27.509,112.223,30.441z"/>
		<path style="fill:#FF6B73;" d="M430.934,71.196c0,1.251-1.014,2.264-2.265,2.264c-1.25,0-2.264-1.014-2.264-2.264
			c0-1.25,1.014-2.264,2.264-2.264C429.92,68.932,430.934,69.946,430.934,71.196z"/>
		<path style="fill:#FF6B73;" d="M346.934,206.196c0,1.25-1.014,2.264-2.265,2.264c-1.25,0-2.264-1.014-2.264-2.264
			c0-1.251,1.014-2.264,2.264-2.264C345.92,203.932,346.934,204.946,346.934,206.196z"/>
		<path style="fill:#FF6B73;" d="M297.934,120.196c0,1.251-1.014,2.264-2.265,2.264c-1.25,0-2.264-1.014-2.264-2.264
			c0-1.25,1.014-2.264,2.264-2.264C296.92,117.932,297.934,118.946,297.934,120.196z"/>
		<path style="fill:#FF6B73;" d="M307.934,38.196c0,1.25-1.014,2.264-2.265,2.264c-1.25,0-2.264-1.014-2.264-2.264
			s1.014-2.264,2.264-2.264C306.92,35.932,307.934,36.946,307.934,38.196z"/>
		<path style="fill:#FF6B73;" d="M233.934,154.196c0,1.25-1.014,2.264-2.265,2.264c-1.25,0-2.264-1.014-2.264-2.264
			c0-1.251,1.014-2.264,2.264-2.264C232.92,151.932,233.934,152.946,233.934,154.196z"/>
		<path style="fill:#FF6B73;" d="M98.934,92.196c0,1.251-1.014,2.264-2.265,2.264c-1.25,0-2.264-1.014-2.264-2.264
			c0-1.25,1.014-2.264,2.264-2.264C97.92,89.932,98.934,90.946,98.934,92.196z"/>
		<path style="fill:#FF6B73;" d="M79.934,105.196c0,1.251-1.014,2.264-2.265,2.264c-1.25,0-2.264-1.014-2.264-2.264
			c0-1.25,1.014-2.264,2.264-2.264C78.92,102.932,79.934,103.946,79.934,105.196z"/>
		<path style="fill:#FF6B73;" d="M420.934,164.196c0,1.25-1.014,2.264-2.265,2.264c-1.25,0-2.264-1.014-2.264-2.264
			c0-1.251,1.014-2.264,2.264-2.264C419.92,161.932,420.934,162.946,420.934,164.196z"/>
		<path style="fill:#FF6B73;" d="M313.934,25.196c0,1.25-1.014,2.264-2.265,2.264c-1.25,0-2.264-1.014-2.264-2.264
			s1.014-2.264,2.264-2.264C312.92,22.932,313.934,23.946,313.934,25.196z"/>
		<path style="fill:#FFAFB2;" d="M112.223,110.441c0,2.932-2.377,5.309-5.309,5.309c-2.932,0-5.309-2.377-5.309-5.309
			c0-2.932,2.377-5.309,5.309-5.309C109.846,105.132,112.223,107.509,112.223,110.441z"/>
		<path style="fill:#FFAFB2;" d="M150.509,136.583c0,2.459-1.994,4.453-4.453,4.453c-2.46,0-4.453-1.994-4.453-4.453
			c0-2.459,1.994-4.453,4.453-4.453C148.515,132.13,150.509,134.124,150.509,136.583z"/>
		<path style="fill:#FFAFB2;" d="M274.934,27.196c0,1.25-1.014,2.264-2.265,2.264c-1.25,0-2.264-1.014-2.264-2.264
			s1.014-2.264,2.264-2.264C273.92,24.932,274.934,25.946,274.934,27.196z"/>
		<path style="fill:#FFAFB2;" d="M414.934,105.196c0,1.251-1.014,2.264-2.265,2.264c-1.25,0-2.264-1.014-2.264-2.264
			c0-1.25,1.014-2.264,2.264-2.264C413.92,102.932,414.934,103.946,414.934,105.196z"/>
		<polygon style="fill:#FFD452;" points="489.411,33.663 478.632,32.911 483.37,42.623 489.411,33.663 478.632,32.911 
			483.37,42.623 		"/>
		<path style="fill:#FF6B73;" d="M441.934,14.196c0,1.251-1.014,2.264-2.265,2.264c-1.25,0-2.264-1.014-2.264-2.264
			s1.014-2.264,2.264-2.264C440.92,11.932,441.934,12.946,441.934,14.196z"/>
		<path style="fill:#FFAFB2;" d="M477.934,79.196c0,1.251-1.014,2.264-2.265,2.264c-1.25,0-2.264-1.014-2.264-2.264
			c0-1.25,1.014-2.264,2.264-2.264C476.92,76.932,477.934,77.946,477.934,79.196z"/>
		<path style="fill:#FFAFB2;" d="M46.934,169.196c0,1.25-1.014,2.264-2.265,2.264c-1.25,0-2.264-1.014-2.264-2.264
			c0-1.251,1.014-2.264,2.264-2.264C45.92,166.932,46.934,167.946,46.934,169.196z"/>
		<path style="fill:#FFAFB2;" d="M294.349,162.196c0,2.032-1.647,3.679-3.68,3.679c-2.031,0-3.679-1.647-3.679-3.679
			c0-2.032,1.647-3.679,3.679-3.679C292.701,158.517,294.349,160.164,294.349,162.196z"/>
		<path style="fill:#FFAFB2;" d="M127.349,55.196c0,2.032-1.647,3.679-3.68,3.679c-2.031,0-3.679-1.647-3.679-3.679
			s1.647-3.679,3.679-3.679C125.701,51.517,127.349,53.164,127.349,55.196z"/>
		<path style="fill:#FFAFB2;" d="M38.349,121.196c0,2.032-1.647,3.679-3.68,3.679c-2.031,0-3.679-1.647-3.679-3.679
			c0-2.032,1.647-3.679,3.679-3.679C36.701,117.517,38.349,119.164,38.349,121.196z"/>
		<path style="fill:#49C5CC;" d="M370.224,119.441c0,2.932-2.377,5.309-5.31,5.309c-2.933,0-5.31-2.377-5.31-5.309
			c0-2.932,2.377-5.309,5.31-5.309C367.847,114.132,370.224,116.509,370.224,119.441z"/>
		<path style="fill:#49C5CC;" d="M417.224,14.441c0,2.932-2.377,5.309-5.31,5.309c-2.933,0-5.31-2.377-5.31-5.309
			s2.377-5.309,5.31-5.309C414.847,9.132,417.224,11.509,417.224,14.441z"/>
		<path style="fill:#49C5CC;" d="M119.211,130.795c0,2.178-1.765,3.943-3.943,3.943c-2.178,0-3.943-1.765-3.943-3.943
			c0-2.178,1.765-3.943,3.943-3.943C117.446,126.852,119.211,128.617,119.211,130.795z"/>
		<path style="fill:#49C5CC;" d="M457.212,99.795c0,2.178-1.766,3.943-3.943,3.943c-2.179,0-3.943-1.765-3.943-3.943
			c0-2.178,1.765-3.943,3.943-3.943C455.446,95.852,457.212,97.617,457.212,99.795z"/>
		<path style="fill:#49C5CC;" d="M20.211,37.795c0,2.178-1.765,3.943-3.943,3.943c-2.178,0-3.943-1.765-3.943-3.943
			c0-2.178,1.765-3.943,3.943-3.943C18.446,33.852,20.211,35.617,20.211,37.795z"/>
		<path style="fill:#49C5CC;" d="M344.224,46.441c0,2.932-2.377,5.309-5.31,5.309c-2.933,0-5.31-2.377-5.31-5.309
			c0-2.932,2.377-5.309,5.31-5.309C341.847,41.132,344.224,43.509,344.224,46.441z"/>
		<path style="fill:#49C5CC;" d="M228.934,48.196c0,1.25-1.014,2.264-2.264,2.264c-1.25,0-2.264-1.014-2.264-2.264
			s1.014-2.264,2.264-2.264C227.92,45.932,228.934,46.946,228.934,48.196z"/>
		<path style="fill:#49C5CC;" d="M37.934,15.196c0,1.251-1.014,2.264-2.264,2.264s-2.264-1.014-2.264-2.264s1.014-2.264,2.264-2.264
			S37.934,13.946,37.934,15.196z"/>
		<path style="fill:#49C5CC;" d="M168.934,19.196c0,1.25-1.014,2.264-2.264,2.264c-1.251,0-2.264-1.014-2.264-2.264
			s1.014-2.264,2.264-2.264C167.92,16.932,168.934,17.946,168.934,19.196z"/>
		<path style="fill:#49C5CC;" d="M363.934,149.196c0,1.25-1.014,2.264-2.265,2.264c-1.25,0-2.264-1.014-2.264-2.264
			c0-1.251,1.014-2.264,2.264-2.264C362.92,146.932,363.934,147.946,363.934,149.196z"/>
		<path style="fill:#49C5CC;" d="M458.934,179.196c0,1.25-1.014,2.264-2.265,2.264c-1.25,0-2.264-1.014-2.264-2.264
			c0-1.251,1.014-2.264,2.264-2.264C457.92,176.932,458.934,177.946,458.934,179.196z"/>
		<path style="fill:#49C5CC;" d="M319.934,69.196c0,1.251-1.014,2.264-2.265,2.264c-1.25,0-2.264-1.014-2.264-2.264
			c0-1.25,1.014-2.264,2.264-2.264C318.92,66.932,319.934,67.946,319.934,69.196z"/>
		<path style="fill:#FFD452;" d="M226.223,125.441c0,2.932-2.377,5.309-5.309,5.309c-2.932,0-5.309-2.377-5.309-5.309
			c0-2.932,2.377-5.309,5.309-5.309C223.846,120.132,226.223,122.509,226.223,125.441z"/>
		<path style="fill:#FFD452;" d="M130.223,101.441c0,2.932-2.377,5.309-5.309,5.309c-2.932,0-5.309-2.377-5.309-5.309
			c0-2.932,2.377-5.309,5.309-5.309C127.846,96.132,130.223,98.509,130.223,101.441z"/>
		<path style="fill:#FFD452;" d="M108.934,178.196c0,1.25-1.014,2.264-2.264,2.264c-1.25,0-2.264-1.014-2.264-2.264
			c0-1.251,1.014-2.264,2.264-2.264C107.92,175.932,108.934,176.946,108.934,178.196z"/>
		<path style="fill:#FFD452;" d="M86.934,134.196c0,1.25-1.014,2.264-2.264,2.264c-1.251,0-2.264-1.014-2.264-2.264
			c0-1.251,1.014-2.264,2.264-2.264C85.92,131.932,86.934,132.946,86.934,134.196z"/>
		<polygon style="fill:#49C5CC;" points="155.206,442.568 145.641,426 164.772,426 155.206,442.568 145.641,426 164.772,426 		"/>
		<polygon style="fill:#49C5CC;" points="433.206,468.568 423.641,452 442.772,452 433.206,468.568 423.641,452 442.772,452 		"/>
		<polygon style="fill:#FFAFB2;" points="36.091,455.873 41.869,437.635 54.775,451.758 36.091,455.873 41.869,437.635 
			54.775,451.758 		"/>
		<polygon style="fill:#FFAFB2;" points="315.116,322 334.244,322.381 324.35,338.755 315.116,322 334.244,322.381 324.35,338.755 
					"/>
		<polygon style="fill:#FFAFB2;" points="159.999,379.907 172.595,380.158 166.08,390.94 159.999,379.907 172.595,380.158 
			166.08,390.94 		"/>
		<polygon style="fill:#FFD452;" points="179.956,331.248 161.57,325.959 175.344,312.682 179.956,331.248 161.57,325.959 
			175.344,312.682 		"/>
		<polygon style="fill:#FFD452;" points="31.185,390.504 30.355,379.731 40.1,384.399 31.185,390.504 30.355,379.731 40.1,384.399 
					"/>
		<polygon style="fill:#FFD452;" points="232.185,443.504 231.355,432.731 241.1,437.399 232.185,443.504 231.355,432.731 
			241.1,437.399 		"/>
		<polygon style="fill:#FFD452;" points="416.411,364.337 405.632,365.089 410.37,355.377 416.411,364.337 405.632,365.089 
			410.37,355.377 		"/>
		<polygon style="fill:#FFD452;" points="347.956,441.248 329.57,435.959 343.344,422.682 347.956,441.248 329.57,435.959 
			343.344,422.682 		"/>
		<polygon style="fill:#FF6B73;" points="52.783,340.935 41.497,356.383 33.762,338.884 52.783,340.935 41.497,356.383 
			33.762,338.884 		"/>
		<polygon style="fill:#FF6B73;" points="253.856,363.707 269.304,374.992 251.806,382.728 253.856,363.707 269.304,374.992 
			251.806,382.728 		"/>
		
			<line style="fill:none;stroke:#FF6B73;stroke-width:5;stroke-miterlimit:10;" x1="139.611" y1="330.185" x2="153.914" y2="303.815"/>
		
			<line style="fill:none;stroke:#FF6B73;stroke-width:5;stroke-miterlimit:10;" x1="162.338" y1="442.947" x2="147.188" y2="417.053"/>
		<line style="fill:none;stroke:#FFD452;stroke-width:5;stroke-miterlimit:10;" x1="338.5" y1="395" x2="338.5" y2="365"/>
		
			<line style="fill:none;stroke:#49C5CC;stroke-width:5;stroke-miterlimit:10;" x1="67.575" y1="441.207" x2="57.951" y2="412.793"/>
		<line style="fill:none;stroke:#49C5CC;stroke-width:5;stroke-miterlimit:10;" x1="19.575" y1="490.207" x2="9.951" y2="461.793"/>
		
			<line style="fill:none;stroke:#49C5CC;stroke-width:5;stroke-miterlimit:10;" x1="276.575" y1="497.207" x2="266.95" y2="468.793"/>
		
			<line style="fill:none;stroke:#FFAFB2;stroke-width:5;stroke-miterlimit:10;" x1="263.711" y1="426.572" x2="237.814" y2="411.428"/>
		
			<line style="fill:none;stroke:#FFAFB2;stroke-width:5;stroke-miterlimit:10;" x1="364.974" y1="437.348" x2="358.553" y2="466.652"/>
		
			<line style="fill:none;stroke:#FFAFB2;stroke-width:5;stroke-miterlimit:10;" x1="129.974" y1="462.348" x2="123.553" y2="491.652"/>
		<path style="fill:#FF6B73;" d="M112.223,459.559c0-2.932-2.377-5.309-5.309-5.309c-2.932,0-5.309,2.377-5.309,5.309
			c0,2.933,2.377,5.31,5.309,5.31C109.846,464.868,112.223,462.491,112.223,459.559z"/>
		<path style="fill:#FF6B73;" d="M349.224,470.559c0-2.932-2.377-5.309-5.31-5.309c-2.933,0-5.31,2.377-5.31,5.309
			c0,2.933,2.377,5.31,5.31,5.31C346.847,475.868,349.224,473.491,349.224,470.559z"/>
		<path style="fill:#FF6B73;" d="M438.224,441.559c0-2.932-2.377-5.309-5.31-5.309c-2.933,0-5.31,2.377-5.31,5.309
			c0,2.933,2.377,5.31,5.31,5.31C435.847,446.868,438.224,444.491,438.224,441.559z"/>
		<path style="fill:#FF6B73;" d="M422.934,403.804c0-1.251-1.014-2.265-2.265-2.265c-1.25,0-2.264,1.014-2.264,2.265
			c0,1.251,1.014,2.265,2.264,2.265C421.92,406.068,422.934,405.055,422.934,403.804z"/>
		<path style="fill:#FF6B73;" d="M340.934,292.804c0-1.251-1.014-2.265-2.265-2.265c-1.25,0-2.264,1.014-2.264,2.265
			c0,1.251,1.014,2.265,2.264,2.265C339.92,295.068,340.934,294.055,340.934,292.804z"/>
		<path style="fill:#FF6B73;" d="M315.934,366.804c0-1.251-1.014-2.265-2.265-2.265c-1.25,0-2.264,1.014-2.264,2.265
			c0,1.251,1.014,2.265,2.264,2.265C314.92,369.068,315.934,368.055,315.934,366.804z"/>
		<path style="fill:#FF6B73;" d="M247.934,337.804c0-1.251-1.014-2.265-2.265-2.265c-1.25,0-2.264,1.014-2.264,2.265
			c0,1.251,1.014,2.265,2.264,2.265C246.92,340.068,247.934,339.055,247.934,337.804z"/>
		<path style="fill:#FF6B73;" d="M86.934,408.804c0-1.251-1.014-2.265-2.265-2.265c-1.25,0-2.264,1.014-2.264,2.265
			c0,1.251,1.014,2.265,2.264,2.265C85.92,411.068,86.934,410.055,86.934,408.804z"/>
		<path style="fill:#FF6B73;" d="M69.934,377.804c0-1.251-1.014-2.265-2.265-2.265c-1.25,0-2.264,1.014-2.264,2.265
			c0,1.251,1.014,2.265,2.264,2.265C68.92,380.068,69.934,379.055,69.934,377.804z"/>
		<path style="fill:#FF6B73;" d="M430.934,341.804c0-1.251-1.014-2.265-2.265-2.265c-1.25,0-2.264,1.014-2.264,2.265
			c0,1.251,1.014,2.265,2.264,2.265C429.92,344.068,430.934,343.055,430.934,341.804z"/>
		<path style="fill:#FF6B73;" d="M428.934,382.804c0-1.251-1.014-2.265-2.265-2.265c-1.25,0-2.264,1.014-2.264,2.265
			c0,1.251,1.014,2.265,2.264,2.265C427.92,385.068,428.934,384.055,428.934,382.804z"/>
		<path style="fill:#FF6B73;" d="M313.934,464.804c0-1.251-1.014-2.265-2.265-2.265c-1.25,0-2.264,1.014-2.264,2.265
			c0,1.251,1.014,2.265,2.264,2.265C312.92,467.068,313.934,466.055,313.934,464.804z"/>
		<path style="fill:#FFAFB2;" d="M113.223,367.559c0-2.932-2.377-5.309-5.309-5.309c-2.932,0-5.309,2.377-5.309,5.309
			c0,2.933,2.377,5.31,5.309,5.31C110.846,372.868,113.223,370.491,113.223,367.559z"/>
		<path style="fill:#FFAFB2;" d="M180.223,409.559c0-2.932-2.377-5.309-5.309-5.309c-2.932,0-5.309,2.377-5.309,5.309
			c0,2.933,2.377,5.31,5.309,5.31C177.846,414.868,180.223,412.491,180.223,409.559z"/>
		<path style="fill:#FFAFB2;" d="M171.509,350.417c0-2.459-1.994-4.452-4.453-4.452c-2.46,0-4.453,1.993-4.453,4.452
			c0,2.46,1.994,4.453,4.453,4.453C169.515,354.87,171.509,352.877,171.509,350.417z"/>
		<path style="fill:#FFAFB2;" d="M269.934,449.804c0-1.251-1.014-2.265-2.265-2.265c-1.25,0-2.264,1.014-2.264,2.265
			c0,1.251,1.014,2.265,2.264,2.265C268.92,452.068,269.934,451.055,269.934,449.804z"/>
		<path style="fill:#FFAFB2;" d="M412.934,382.804c0-1.251-1.014-2.265-2.265-2.265c-1.25,0-2.264,1.014-2.264,2.265
			c0,1.251,1.014,2.265,2.264,2.265C411.92,385.068,412.934,384.055,412.934,382.804z"/>
		<polygon style="fill:#FFD452;" points="485.411,423.337 474.632,424.089 479.37,414.377 485.411,423.337 474.632,424.089 
			479.37,414.377 		"/>
		<polygon style="fill:#FFD452;" points="417.882,460.324 408.341,465.397 408.718,454.598 417.882,460.324 408.341,465.397 
			408.718,454.598 		"/>
		<path style="fill:#FF6B73;" d="M484.934,462.804c0-1.251-1.014-2.265-2.265-2.265c-1.25,0-2.264,1.014-2.264,2.265
			c0,1.251,1.014,2.265,2.264,2.265C483.92,465.068,484.934,464.055,484.934,462.804z"/>
		<path style="fill:#FF6B73;" d="M396.934,402.804c0-1.251-1.014-2.265-2.265-2.265c-1.25,0-2.264,1.014-2.264,2.265
			c0,1.251,1.014,2.265,2.264,2.265C395.92,405.068,396.934,404.055,396.934,402.804z"/>
		<path style="fill:#FF6B73;" d="M227.934,485.804c0-1.251-1.014-2.265-2.265-2.265c-1.25,0-2.264,1.014-2.264,2.265
			c0,1.251,1.014,2.265,2.264,2.265C226.92,488.068,227.934,487.055,227.934,485.804z"/>
		<path style="fill:#FFAFB2;" d="M459.934,394.804c0-1.251-1.014-2.265-2.265-2.265c-1.25,0-2.264,1.014-2.264,2.265
			c0,1.251,1.014,2.265,2.264,2.265C458.92,397.068,459.934,396.055,459.934,394.804z"/>
		<path style="fill:#FFAFB2;" d="M77.934,319.804c0-1.251-1.014-2.265-2.265-2.265c-1.25,0-2.264,1.014-2.264,2.265
			c0,1.251,1.014,2.265,2.264,2.265C76.92,322.068,77.934,321.055,77.934,319.804z"/>
		<path style="fill:#FFAFB2;" d="M300.349,341.804c0-2.032-1.647-3.679-3.68-3.679c-2.031,0-3.679,1.647-3.679,3.679
			s1.647,3.679,3.679,3.679C298.701,345.482,300.349,343.836,300.349,341.804z"/>
		<path style="fill:#FFAFB2;" d="M131.349,430.804c0-2.032-1.647-3.679-3.68-3.679c-2.031,0-3.679,1.647-3.679,3.679
			s1.647,3.679,3.679,3.679C129.701,434.482,131.349,432.836,131.349,430.804z"/>
		<path style="fill:#FFAFB2;" d="M24.349,347.804c0-2.032-1.647-3.679-3.68-3.679c-2.031,0-3.679,1.647-3.679,3.679
			s1.647,3.679,3.679,3.679C22.701,351.482,24.349,349.836,24.349,347.804z"/>
		<path style="fill:#49C5CC;" d="M395.224,375.559c0-2.932-2.377-5.309-5.31-5.309c-2.933,0-5.31,2.377-5.31,5.309
			c0,2.933,2.377,5.31,5.31,5.31C392.847,380.868,395.224,378.491,395.224,375.559z"/>
		<path style="fill:#FFAFB2;" d="M424.224,471.559c0-2.932-2.377-5.309-5.31-5.309c-2.933,0-5.31,2.377-5.31,5.309
			c0,2.933,2.377,5.31,5.31,5.31C421.847,476.868,424.224,474.491,424.224,471.559z"/>
		<path style="fill:#49C5CC;" d="M125.211,347.205c0-2.178-1.765-3.943-3.943-3.943c-2.178,0-3.943,1.766-3.943,3.943
			c0,2.178,1.765,3.943,3.943,3.943C123.446,351.148,125.211,349.383,125.211,347.205z"/>
		<path style="fill:#49C5CC;" d="M470.212,348.205c0-2.178-1.766-3.943-3.943-3.943c-2.179,0-3.943,1.766-3.943,3.943
			c0,2.178,1.765,3.943,3.943,3.943C468.446,352.148,470.212,350.383,470.212,348.205z"/>
		<path style="fill:#49C5CC;" d="M24.211,429.205c0-2.178-1.765-3.943-3.943-3.943c-2.178,0-3.943,1.766-3.943,3.943
			c0,2.178,1.765,3.943,3.943,3.943C22.446,433.148,24.211,431.383,24.211,429.205z"/>
		<path style="fill:#49C5CC;" d="M468.212,483.205c0-2.178-1.766-3.943-3.943-3.943c-2.179,0-3.943,1.766-3.943,3.943
			c0,2.178,1.765,3.943,3.943,3.943C466.446,487.148,468.212,485.383,468.212,483.205z"/>
		<path style="fill:#49C5CC;" d="M344.224,443.559c0-2.932-2.377-5.309-5.31-5.309c-2.933,0-5.31,2.377-5.31,5.309
			c0,2.933,2.377,5.31,5.31,5.31C341.847,448.868,344.224,446.491,344.224,443.559z"/>
		<path style="fill:#49C5CC;" d="M216.934,429.804c0-1.251-1.014-2.265-2.264-2.265c-1.25,0-2.264,1.014-2.264,2.265
			c0,1.251,1.014,2.265,2.264,2.265C215.92,432.068,216.934,431.055,216.934,429.804z"/>
		<path style="fill:#49C5CC;" d="M41.934,480.804c0-1.251-1.014-2.265-2.264-2.265s-2.264,1.014-2.264,2.265
			c0,1.251,1.014,2.265,2.264,2.265S41.934,482.055,41.934,480.804z"/>
		<path style="fill:#49C5CC;" d="M168.934,470.804c0-1.251-1.014-2.265-2.264-2.265c-1.251,0-2.264,1.014-2.264,2.265
			c0,1.251,1.014,2.265,2.264,2.265C167.92,473.068,168.934,472.055,168.934,470.804z"/>
		<path style="fill:#49C5CC;" d="M353.934,313.804c0-1.251-1.014-2.265-2.265-2.265c-1.25,0-2.264,1.014-2.264,2.265
			c0,1.251,1.014,2.265,2.264,2.265C352.92,316.068,353.934,315.055,353.934,313.804z"/>
		<path style="fill:#49C5CC;" d="M464.934,315.804c0-1.251-1.014-2.265-2.265-2.265c-1.25,0-2.264,1.014-2.264,2.265
			c0,1.251,1.014,2.265,2.264,2.265C463.92,318.068,464.934,317.055,464.934,315.804z"/>
		<path style="fill:#49C5CC;" d="M484.934,387.804c0-1.251-1.014-2.265-2.265-2.265c-1.25,0-2.264,1.014-2.264,2.265
			c0,1.251,1.014,2.265,2.264,2.265C483.92,390.068,484.934,389.055,484.934,387.804z"/>
		<path style="fill:#49C5CC;" d="M319.934,416.804c0-1.251-1.014-2.265-2.265-2.265c-1.25,0-2.264,1.014-2.264,2.265
			c0,1.251,1.014,2.265,2.264,2.265C318.92,419.068,319.934,418.055,319.934,416.804z"/>
		<path style="fill:#FFD452;" d="M227.223,344.559c0-2.932-2.377-5.309-5.309-5.309c-2.932,0-5.309,2.377-5.309,5.309
			c0,2.933,2.377,5.31,5.309,5.31C224.846,349.868,227.223,347.491,227.223,344.559z"/>
		<path style="fill:#FFD452;" d="M149.223,394.559c0-2.932-2.377-5.309-5.309-5.309c-2.932,0-5.309,2.377-5.309,5.309
			c0,2.933,2.377,5.31,5.309,5.31C146.846,399.868,149.223,397.491,149.223,394.559z"/>
		<path style="fill:#FFD452;" d="M122.934,303.804c0-1.251-1.014-2.265-2.264-2.265c-1.25,0-2.264,1.014-2.264,2.265
			c0,1.251,1.014,2.265,2.264,2.265C121.92,306.068,122.934,305.055,122.934,303.804z"/>
		<path style="fill:#FFD452;" d="M226.934,404.804c0-1.251-1.014-2.265-2.264-2.265c-1.25,0-2.264,1.014-2.264,2.265
			c0,1.251,1.014,2.265,2.264,2.265C225.92,407.068,226.934,406.055,226.934,404.804z"/>
		<path style="fill:#FFD452;" d="M301.934,414.804c0-1.251-1.014-2.265-2.265-2.265c-1.25,0-2.264,1.014-2.264,2.265
			c0,1.251,1.014,2.265,2.264,2.265C300.92,417.068,301.934,416.055,301.934,414.804z"/>
		<path style="fill:#FFD452;" d="M311.934,443.804c0-1.251-1.014-2.265-2.265-2.265c-1.25,0-2.264,1.014-2.264,2.265
			c0,1.251,1.014,2.265,2.264,2.265C310.92,446.068,311.934,445.055,311.934,443.804z"/>
		<path style="fill:#FFD452;" d="M79.934,479.804c0-1.251-1.014-2.265-2.265-2.265c-1.25,0-2.264,1.014-2.264,2.265
			c0,1.251,1.014,2.265,2.264,2.265C78.92,482.068,79.934,481.055,79.934,479.804z"/>
		<path style="fill:#FFD452;" d="M18.934,404.804c0-1.251-1.014-2.265-2.265-2.265c-1.25,0-2.264,1.014-2.264,2.265
			c0,1.251,1.014,2.265,2.264,2.265C17.92,407.068,18.934,406.055,18.934,404.804z"/>
		<path style="fill:#FFD452;" d="M408.934,418.804c0-1.251-1.014-2.265-2.265-2.265c-1.25,0-2.264,1.014-2.264,2.265
			c0,1.251,1.014,2.265,2.264,2.265C407.92,421.068,408.934,420.055,408.934,418.804z"/>
		<path style="fill:#FFD452;" d="M450.934,247.804c0-1.251-1.014-2.265-2.265-2.265c-1.25,0-2.264,1.014-2.264,2.265
			c0,1.251,1.014,2.265,2.264,2.265C449.92,250.068,450.934,249.055,450.934,247.804z"/>
		<path style="fill:#FFD452;" d="M66.934,345.804c0-1.251-1.014-2.265-2.264-2.265c-1.251,0-2.264,1.014-2.264,2.265
			c0,1.251,1.014,2.265,2.264,2.265C65.92,348.068,66.934,347.055,66.934,345.804z"/>
		<polygon style="fill:#49C5CC;" points="480.206,285.568 470.641,269 489.772,269 480.206,285.568 470.641,269 489.772,269 		"/>
		<polygon style="fill:#49C5CC;" points="276.206,312.568 266.641,296 285.772,296 276.206,312.568 266.641,296 285.772,296 		"/>
		<polygon style="fill:#49C5CC;" points="134.206,297.568 124.641,281 143.772,281 134.206,297.568 124.641,281 143.772,281 		"/>
		<polygon style="fill:#49C5CC;" points="185.206,251.568 175.641,235 194.772,235 185.206,251.568 175.641,235 194.772,235 		"/>
		<polygon style="fill:#FFAFB2;" points="364.091,286.873 369.869,268.635 382.774,282.758 364.091,286.873 369.869,268.635 
			382.774,282.758 		"/>
		<polygon style="fill:#FFAFB2;" points="48.116,255 67.244,255.381 57.35,271.755 48.116,255 67.244,255.381 57.35,271.755 		"/>
		<polygon style="fill:#FFAFB2;" points="486.999,223.907 499.595,224.158 493.079,234.939 486.999,223.907 499.595,224.158 
			493.079,234.939 		"/>
		<polygon style="fill:#FFD452;" points="480.956,173.248 462.57,167.959 476.344,154.682 480.956,173.248 462.57,167.959 
			476.344,154.682 		"/>
		<polygon style="fill:#FFD452;" points="348.185,233.504 347.354,222.731 357.101,227.399 348.185,233.504 347.354,222.731 
			357.101,227.399 		"/>
		<polygon style="fill:#FFD452;" points="126.185,257.504 125.354,246.731 135.101,251.399 126.185,257.504 125.354,246.731 
			135.101,251.399 		"/>
		<polygon style="fill:#FFD452;" points="107.411,210.337 96.632,211.089 101.37,201.377 107.411,210.337 96.632,211.089 
			101.37,201.377 		"/>
		<polygon style="fill:#FFD452;" points="38.956,287.248 20.57,281.959 34.344,268.682 38.956,287.248 20.57,281.959 
			34.344,268.682 		"/>
		<polygon style="fill:#FF6B73;" points="414.782,190.935 403.497,206.383 395.762,188.884 414.782,190.935 403.497,206.383 
			395.762,188.884 		"/>
		<polygon style="fill:#FF6B73;" points="260.856,168.707 276.304,179.992 258.806,187.729 260.856,168.707 276.304,179.992 
			258.806,187.729 		"/>
		
			<line style="fill:none;stroke:#FF6B73;stroke-width:5;stroke-miterlimit:10;" x1="438.611" y1="179.186" x2="452.914" y2="152.814"/>
		
			<line style="fill:none;stroke:#FF6B73;stroke-width:5;stroke-miterlimit:10;" x1="489.338" y1="271.947" x2="474.188" y2="246.053"/>
		
			<line style="fill:none;stroke:#FF6B73;stroke-width:5;stroke-miterlimit:10;" x1="253.338" y1="203.947" x2="238.188" y2="178.053"/>
		<line style="fill:none;stroke:#FFD452;stroke-width:5;stroke-miterlimit:10;" x1="29.5" y1="250" x2="29.5" y2="220"/>
		
			<line style="fill:none;stroke:#49C5CC;stroke-width:5;stroke-miterlimit:10;" x1="404.575" y1="314.207" x2="394.95" y2="285.793"/>
		
			<line style="fill:none;stroke:#FFAFB2;stroke-width:5;stroke-miterlimit:10;" x1="204.711" y1="200.572" x2="178.814" y2="185.428"/>
		
			<line style="fill:none;stroke:#FFAFB2;stroke-width:5;stroke-miterlimit:10;" x1="313.711" y1="300.572" x2="287.814" y2="285.428"/>
		
			<line style="fill:none;stroke:#FFAFB2;stroke-width:5;stroke-miterlimit:10;" x1="58.394" y1="304.909" x2="33.132" y2="321.091"/>
		<path style="fill:#FF6B73;" d="M436.224,293.559c0-2.932-2.377-5.309-5.31-5.309c-2.933,0-5.31,2.377-5.31,5.309
			c0,2.933,2.377,5.31,5.31,5.31C433.847,298.868,436.224,296.491,436.224,293.559z"/>
		<path style="fill:#FF6B73;" d="M283.224,211.559c0-2.932-2.377-5.309-5.31-5.309c-2.933,0-5.31,2.377-5.31,5.309
			c0,2.933,2.377,5.31,5.31,5.31C280.847,216.868,283.224,214.491,283.224,211.559z"/>
		<path style="fill:#FF6B73;" d="M109.934,266.804c0-1.251-1.014-2.265-2.265-2.265c-1.25,0-2.264,1.014-2.264,2.265
			c0,1.251,1.014,2.265,2.264,2.265C108.92,269.068,109.934,268.055,109.934,266.804z"/>
		<path style="fill:#FF6B73;" d="M10.934,126.804c0-1.251-1.014-2.265-2.265-2.265c-1.25,0-2.264,1.014-2.264,2.265
			c0,1.251,1.014,2.265,2.264,2.265C9.92,129.068,10.934,128.055,10.934,126.804z"/>
		<path style="fill:#FF6B73;" d="M5.934,204.804c0-1.251-1.014-2.265-2.265-2.265c-1.25,0-2.264,1.014-2.264,2.265
			c0,1.251,1.014,2.265,2.264,2.265C4.92,207.068,5.934,206.055,5.934,204.804z"/>
		<path style="fill:#FF6B73;" d="M129.934,216.804c0-1.251-1.014-2.265-2.265-2.265c-1.25,0-2.264,1.014-2.264,2.265
			c0,1.251,1.014,2.265,2.264,2.265C128.92,219.068,129.934,218.055,129.934,216.804z"/>
		<path style="fill:#FF6B73;" d="M428.934,260.804c0-1.251-1.014-2.265-2.265-2.265c-1.25,0-2.264,1.014-2.264,2.265
			c0,1.251,1.014,2.265,2.264,2.265C427.92,263.068,428.934,262.055,428.934,260.804z"/>
		<path style="fill:#FF6B73;" d="M373.934,242.804c0-1.251-1.014-2.265-2.265-2.265c-1.25,0-2.264,1.014-2.264,2.265
			c0,1.251,1.014,2.265,2.264,2.265C372.92,245.068,373.934,244.055,373.934,242.804z"/>
		<path style="fill:#FF6B73;" d="M313.934,260.804c0-1.251-1.014-2.265-2.265-2.265c-1.25,0-2.264,1.014-2.264,2.265
			c0,1.251,1.014,2.265,2.264,2.265C312.92,263.068,313.934,262.055,313.934,260.804z"/>
		<polygon style="fill:#FFAFB2;" points="227.091,293.873 232.869,275.635 245.774,289.758 227.091,293.873 232.869,275.635 
			245.774,289.758 		"/>
		<polygon style="fill:#FFAFB2;" points="302.091,236.873 307.869,218.635 320.774,232.758 302.091,236.873 307.869,218.635 
			320.774,232.758 		"/>
		
			<line style="fill:none;stroke:#49C5CC;stroke-width:5;stroke-miterlimit:10;" x1="209.575" y1="305.207" x2="199.95" y2="276.793"/>
		<path style="fill:#FF6B73;" d="M266.934,258.804c0-1.251-1.014-2.265-2.265-2.265c-1.25,0-2.264,1.014-2.264,2.265
			c0,1.251,1.014,2.265,2.264,2.265C265.92,261.068,266.934,260.055,266.934,258.804z"/>
		<path style="fill:#FF6B73;" d="M236.934,249.804c0-1.251-1.014-2.265-2.265-2.265c-1.25,0-2.264,1.014-2.264,2.265
			c0,1.251,1.014,2.265,2.264,2.265C235.92,252.068,236.934,251.055,236.934,249.804z"/>
		<path style="fill:#FF6B73;" d="M384.934,230.804c0-1.251-1.014-2.265-2.265-2.265c-1.25,0-2.264,1.014-2.264,2.265
			c0,1.251,1.014,2.265,2.264,2.265C383.92,233.068,384.934,232.055,384.934,230.804z"/>
		<path style="fill:#FF6B73;" d="M209.934,180.804c0-1.251-1.014-2.265-2.265-2.265c-1.25,0-2.264,1.014-2.264,2.265
			c0,1.251,1.014,2.265,2.264,2.265C208.92,183.068,209.934,182.055,209.934,180.804z"/>
		<path style="fill:#FF6B73;" d="M84.934,186.804c0-1.251-1.014-2.265-2.265-2.265c-1.25,0-2.264,1.014-2.264,2.265
			c0,1.251,1.014,2.265,2.264,2.265C83.92,189.068,84.934,188.055,84.934,186.804z"/>
		<path style="fill:#FF6B73;" d="M4.934,310.804c0-1.251-1.014-2.265-2.265-2.265c-1.25,0-2.264,1.014-2.264,2.265
			c0,1.251,1.014,2.265,2.264,2.265C3.92,313.068,4.934,312.055,4.934,310.804z"/>
		<path style="fill:#FFAFB2;" d="M407.224,274.559c0-2.932-2.377-5.309-5.31-5.309c-2.933,0-5.31,2.377-5.31,5.309
			c0,2.933,2.377,5.31,5.31,5.31C404.847,279.868,407.224,277.491,407.224,274.559z"/>
		<path style="fill:#FFAFB2;" d="M409.224,206.559c0-2.932-2.377-5.309-5.31-5.309c-2.933,0-5.31,2.377-5.31,5.309
			c0,2.933,2.377,5.31,5.31,5.31C406.847,211.868,409.224,209.491,409.224,206.559z"/>
		<path style="fill:#FFAFB2;" d="M484.509,211.417c0-2.459-1.994-4.452-4.453-4.452c-2.459,0-4.453,1.993-4.453,4.452
			c0,2.46,1.994,4.453,4.453,4.453C482.515,215.87,484.509,213.877,484.509,211.417z"/>
		<path style="fill:#FFAFB2;" d="M91.934,168.804c0-1.251-1.014-2.265-2.265-2.265c-1.25,0-2.264,1.014-2.264,2.265
			c0,1.251,1.014,2.265,2.264,2.265C90.92,171.068,91.934,170.055,91.934,168.804z"/>
		<path style="fill:#FFAFB2;" d="M100.934,231.804c0-1.251-1.014-2.265-2.265-2.265c-1.25,0-2.264,1.014-2.264,2.265
			c0,1.251,1.014,2.265,2.264,2.265C99.92,234.068,100.934,233.055,100.934,231.804z"/>
		<polygon style="fill:#FFD452;" points="181.411,278.337 170.632,279.089 175.37,269.377 181.411,278.337 170.632,279.089 
			175.37,269.377 		"/>
		<path style="fill:#FF6B73;" d="M186.934,305.804c0-1.251-1.014-2.265-2.265-2.265c-1.25,0-2.264,1.014-2.264,2.265
			c0,1.251,1.014,2.265,2.264,2.265C185.92,308.068,186.934,307.055,186.934,305.804z"/>
		<path style="fill:#FF6B73;" d="M309.934,204.804c0-1.251-1.014-2.265-2.265-2.265c-1.25,0-2.264,1.014-2.264,2.265
			c0,1.251,1.014,2.265,2.264,2.265C308.92,207.068,309.934,206.055,309.934,204.804z"/>
		<path style="fill:#FFAFB2;" d="M159.934,234.804c0-1.251-1.014-2.265-2.265-2.265c-1.25,0-2.264,1.014-2.264,2.265
			c0,1.251,1.014,2.265,2.264,2.265C158.92,237.068,159.934,236.055,159.934,234.804z"/>
		<path style="fill:#FFAFB2;" d="M386.934,158.804c0-1.251-1.014-2.265-2.265-2.265c-1.25,0-2.264,1.014-2.264,2.265
			c0,1.251,1.014,2.265,2.264,2.265C385.92,161.068,386.934,160.055,386.934,158.804z"/>
		<path style="fill:#FFAFB2;" d="M18.349,173.804c0-2.032-1.647-3.679-3.68-3.679c-2.031,0-3.679,1.646-3.679,3.679
			c0,2.032,1.648,3.679,3.679,3.679C16.701,177.482,18.349,175.836,18.349,173.804z"/>
		<path style="fill:#FFAFB2;" d="M456.349,275.804c0-2.032-1.647-3.679-3.68-3.679c-2.031,0-3.679,1.647-3.679,3.679
			s1.647,3.679,3.679,3.679C454.701,279.482,456.349,277.836,456.349,275.804z"/>
		<path style="fill:#FFAFB2;" d="M365.349,190.804c0-2.032-1.647-3.679-3.68-3.679c-2.031,0-3.679,1.646-3.679,3.679
			c0,2.032,1.647,3.679,3.679,3.679C363.701,194.482,365.349,192.836,365.349,190.804z"/>
		<path style="fill:#49C5CC;" d="M78.224,218.559c0-2.932-2.377-5.309-5.31-5.309c-2.933,0-5.31,2.377-5.31,5.309
			c0,2.933,2.377,5.31,5.31,5.31C75.847,223.868,78.224,221.491,78.224,218.559z"/>
		<path style="fill:#49C5CC;" d="M103.224,343.559c0-2.932-2.377-5.309-5.309-5.309c-2.933,0-5.31,2.377-5.31,5.309
			c0,2.933,2.377,5.31,5.31,5.31C100.847,348.868,103.224,346.491,103.224,343.559z"/>
		<polygon style="fill:#49C5CC;" points="251.206,239.568 241.641,223 260.772,223 251.206,239.568 241.641,223 260.772,223 		"/>
		<path style="fill:#FF6B73;" d="M226.934,208.804c0-1.251-1.014-2.265-2.265-2.265c-1.25,0-2.264,1.014-2.264,2.265
			c0,1.251,1.014,2.265,2.264,2.265C225.92,211.068,226.934,210.055,226.934,208.804z"/>
		<polygon style="fill:#FFD452;" points="293.411,211.337 282.632,212.089 287.37,202.377 293.411,211.337 282.632,212.089 
			287.37,202.377 		"/>
		<path style="fill:#FF6B73;" d="M292.934,250.804c0-1.251-1.014-2.265-2.265-2.265c-1.25,0-2.264,1.014-2.264,2.265
			c0,1.251,1.014,2.265,2.264,2.265C291.92,253.068,292.934,252.055,292.934,250.804z"/>
		<path style="fill:#49C5CC;" d="M225.224,263.559c0-2.932-2.377-5.309-5.309-5.309c-2.933,0-5.31,2.377-5.31,5.309
			c0,2.933,2.377,5.31,5.31,5.31C222.847,268.868,225.224,266.491,225.224,263.559z"/>
		<path style="fill:#49C5CC;" d="M445.212,195.205c0-2.178-1.766-3.943-3.943-3.943c-2.179,0-3.943,1.766-3.943,3.943
			c0,2.178,1.765,3.943,3.943,3.943C443.446,199.148,445.212,197.383,445.212,195.205z"/>
		<path style="fill:#49C5CC;" d="M174.212,209.205c0-2.178-1.766-3.943-3.943-3.943c-2.179,0-3.943,1.766-3.943,3.943
			c0,2.178,1.765,3.943,3.943,3.943C172.446,213.148,174.212,211.383,174.212,209.205z"/>
		<path style="fill:#49C5CC;" d="M348.212,268.205c0-2.178-1.766-3.943-3.943-3.943c-2.179,0-3.943,1.766-3.943,3.943
			c0,2.178,1.765,3.943,3.943,3.943C346.446,272.148,348.212,270.383,348.212,268.205z"/>
		<path style="fill:#49C5CC;" d="M266.212,326.205c0-2.178-1.766-3.943-3.943-3.943c-2.179,0-3.943,1.766-3.943,3.943
			c0,2.178,1.765,3.943,3.943,3.943C264.446,330.148,266.212,328.383,266.212,326.205z"/>
		<path style="fill:#49C5CC;" d="M35.224,289.559c0-2.932-2.377-5.309-5.309-5.309c-2.933,0-5.31,2.377-5.31,5.309
			c0,2.933,2.377,5.31,5.31,5.31C32.847,294.868,35.224,292.491,35.224,289.559z"/>
		<path style="fill:#49C5CC;" d="M370.934,325.804c0-1.251-1.014-2.265-2.265-2.265c-1.25,0-2.264,1.014-2.264,2.265
			c0,1.251,1.014,2.265,2.264,2.265C369.92,328.068,370.934,327.055,370.934,325.804z"/>
		<path style="fill:#49C5CC;" d="M377.934,305.804c0-1.251-1.014-2.265-2.265-2.265c-1.25,0-2.264,1.014-2.264,2.265
			c0,1.251,1.014,2.265,2.264,2.265C376.92,308.068,377.934,307.055,377.934,305.804z"/>
		<path style="fill:#49C5CC;" d="M203.934,345.804c0-1.251-1.014-2.265-2.265-2.265c-1.25,0-2.264,1.014-2.264,2.265
			c0,1.251,1.014,2.265,2.264,2.265C202.92,348.068,203.934,347.055,203.934,345.804z"/>
		<path style="fill:#49C5CC;" d="M485.934,313.804c0-1.251-1.014-2.265-2.265-2.265c-1.25,0-2.264,1.014-2.264,2.265
			c0,1.251,1.014,2.265,2.264,2.265C484.92,316.068,485.934,315.055,485.934,313.804z"/>
		<path style="fill:#49C5CC;" d="M39.934,190.804c0-1.251-1.014-2.265-2.265-2.265c-1.25,0-2.264,1.014-2.264,2.265
			c0,1.251,1.014,2.265,2.264,2.265C38.92,193.068,39.934,192.055,39.934,190.804z"/>
		<path style="fill:#49C5CC;" d="M202.934,148.804c0-1.251-1.014-2.265-2.265-2.265c-1.25,0-2.264,1.014-2.264,2.265
			c0,1.251,1.014,2.265,2.264,2.265C201.92,151.068,202.934,150.055,202.934,148.804z"/>
		<path style="fill:#49C5CC;" d="M5.934,256.804c0-1.251-1.014-2.265-2.265-2.265c-1.25,0-2.264,1.014-2.264,2.265
			c0,1.251,1.014,2.265,2.264,2.265C4.92,259.068,5.934,258.055,5.934,256.804z"/>
		<path style="fill:#FFD452;" d="M26.224,141.559c0-2.932-2.377-5.309-5.309-5.309c-2.933,0-5.31,2.377-5.31,5.309
			c0,2.933,2.377,5.31,5.31,5.31C23.847,146.868,26.224,144.491,26.224,141.559z"/>
		<path style="fill:#FFD452;" d="M470.224,231.559c0-2.932-2.377-5.309-5.31-5.309c-2.933,0-5.31,2.377-5.31,5.309
			c0,2.933,2.377,5.31,5.31,5.31C467.847,236.868,470.224,234.491,470.224,231.559z"/>
		<path style="fill:#FFD452;" d="M445.934,111.804c0-1.251-1.014-2.265-2.265-2.265c-1.25,0-2.264,1.014-2.264,2.265
			c0,1.251,1.014,2.265,2.264,2.265C444.92,114.068,445.934,113.055,445.934,111.804z"/>
		<path style="fill:#FFD452;" d="M348.934,131.804c0-1.251-1.014-2.265-2.265-2.265c-1.25,0-2.264,1.014-2.264,2.265
			c0,1.251,1.014,2.265,2.264,2.265C347.92,134.068,348.934,133.055,348.934,131.804z"/>
		<path style="fill:#FFD452;" d="M283.934,130.804c0-1.251-1.014-2.265-2.265-2.265c-1.25,0-2.264,1.014-2.264,2.265
			c0,1.251,1.014,2.265,2.264,2.265C282.92,133.068,283.934,132.055,283.934,130.804z"/>
		<path style="fill:#FFD452;" d="M292.934,87.804c0-1.251-1.014-2.265-2.265-2.265c-1.25,0-2.264,1.014-2.264,2.265
			c0,1.251,1.014,2.265,2.264,2.265C291.92,90.068,292.934,89.055,292.934,87.804z"/>
		<path style="fill:#FFD452;" d="M208.934,85.804c0-1.251-1.014-2.265-2.265-2.265c-1.25,0-2.264,1.014-2.264,2.265
			c0,1.251,1.014,2.265,2.264,2.265C207.92,88.068,208.934,87.055,208.934,85.804z"/>
		<path style="fill:#FFD452;" d="M66.934,24.804c0-1.251-1.014-2.265-2.265-2.265c-1.25,0-2.264,1.014-2.264,2.265
			c0,1.251,1.014,2.265,2.264,2.265C65.92,27.068,66.934,26.055,66.934,24.804z"/>
		<path style="fill:#FFD452;" d="M406.934,85.804c0-1.251-1.014-2.265-2.265-2.265c-1.25,0-2.264,1.014-2.264,2.265
			c0,1.251,1.014,2.265,2.264,2.265C405.92,88.068,406.934,87.055,406.934,85.804z"/>
		<path style="fill:#FFD452;" d="M428.934,94.804c0-1.251-1.014-2.265-2.265-2.265c-1.25,0-2.264,1.014-2.264,2.265
			c0,1.251,1.014,2.265,2.264,2.265C427.92,97.068,428.934,96.055,428.934,94.804z"/>
		<path style="fill:#FFD452;" d="M430.934,29.804c0-1.251-1.014-2.265-2.265-2.265c-1.25,0-2.264,1.014-2.264,2.265
			c0,1.251,1.014,2.265,2.264,2.265C429.92,32.068,430.934,31.055,430.934,29.804z"/>
		<path style="fill:#FFD452;" d="M352.934,14.804c0-1.251-1.014-2.265-2.265-2.265c-1.25,0-2.264,1.014-2.264,2.265
			s1.014,2.265,2.264,2.265C351.92,17.068,352.934,16.055,352.934,14.804z"/>
		<path style="fill:#FFD452;" d="M220.934,29.804c0-1.251-1.014-2.265-2.265-2.265c-1.25,0-2.264,1.014-2.264,2.265
			c0,1.251,1.014,2.265,2.264,2.265C219.92,32.068,220.934,31.055,220.934,29.804z"/>
		<path style="fill:#FFD452;" d="M110.934,58.804c0-1.251-1.014-2.265-2.265-2.265c-1.25,0-2.264,1.014-2.264,2.265
			s1.014,2.265,2.264,2.265C109.92,61.068,110.934,60.055,110.934,58.804z"/>
		<path style="fill:#FFD452;" d="M136.934,32.804c0-1.251-1.014-2.265-2.265-2.265c-1.25,0-2.264,1.014-2.264,2.265
			s1.014,2.265,2.264,2.265C135.92,35.068,136.934,34.055,136.934,32.804z"/>
		<path style="fill:#FFD452;" d="M4.934,87.804c0-1.251-1.014-2.265-2.265-2.265c-1.25,0-2.264,1.014-2.264,2.265
			c0,1.251,1.014,2.265,2.264,2.265C3.92,90.068,4.934,89.055,4.934,87.804z"/>
		<path style="fill:#FFD452;" d="M371.934,214.804c0-1.251-1.014-2.265-2.265-2.265c-1.25,0-2.264,1.014-2.264,2.265
			c0,1.251,1.014,2.265,2.264,2.265C370.92,217.068,371.934,216.055,371.934,214.804z"/>
	</g>
	<g>
		
			<ellipse transform="matrix(0.9974 -0.0716 0.0716 0.9974 -17.0331 18.6169)" style="fill:#357BC3;" cx="251.284" cy="247.007" rx="66.515" ry="66.515"/>
		<path style="fill:#ADE0E3;" d="M312.825,244.98c0,36.228-29.369,65.596-65.596,65.596s-65.596-29.368-65.596-65.596
			c0-36.227,29.369-65.595,65.596-65.595S312.825,208.753,312.825,244.98z"/>
		<g>
			<g>
				<text transform="matrix(1 0 0 1 205.0508 247.0151)" style="fill:#FDFDFD; font-family:'Antonio-Bold'; font-size:26.1583px;">CONFETTI</text>
				<text transform="matrix(1 0 0 1 205.0503 265.9688)" style="fill:#FDFDFD; font-family:'Antonio-Light'; font-size:19.4226px;">BACKGROUND</text>
			</g>
			<g>
				<polygon style="fill:#FDFDFD;" points="225.426,278.423 226.264,281 228.972,281 226.78,282.524 227.618,285.066 
					225.426,283.456 223.234,285.038 224.072,282.527 221.88,281 224.589,281 				"/>
				<polygon style="fill:#FDFDFD;" points="237.238,278.423 238.075,281 240.784,281 238.592,282.524 239.43,285.066 
					237.238,283.456 235.046,285.038 235.883,282.527 233.692,281 236.4,281 				"/>
				<polygon style="fill:#FDFDFD;" points="249.05,278.423 249.886,281 252.596,281 250.403,282.524 251.241,285.066 
					249.05,283.456 246.858,285.038 247.694,282.527 245.504,281 248.213,281 				"/>
				<polygon style="fill:#FDFDFD;" points="260.862,278.423 261.698,281 264.408,281 262.216,282.524 263.053,285.066 
					260.862,283.456 258.67,285.038 259.507,282.527 257.316,281 260.025,281 				"/>
				<polygon style="fill:#FDFDFD;" points="272.675,278.423 273.511,281 276.22,281 274.028,282.524 274.865,285.066 
					272.675,283.456 270.481,285.038 271.318,282.527 269.128,281 271.837,281 				"/>
			</g>
			<g>
				<polygon style="fill:#FDFDFD;" points="224.471,205.422 225.308,208 228.017,208 225.826,209.33 226.663,211.775 
					224.471,210.117 222.279,211.675 223.117,209.346 220.925,208 223.634,208 				"/>
				<polygon style="fill:#FDFDFD;" points="236.283,205.422 237.12,208 239.829,208 237.637,209.33 238.474,211.775 
					236.283,210.117 234.09,211.675 234.928,209.346 232.737,208 235.445,208 				"/>
				<polygon style="fill:#FDFDFD;" points="248.095,205.422 248.932,208 251.64,208 249.449,209.33 250.286,211.775 
					248.095,210.117 245.903,211.675 246.74,209.346 244.549,208 247.257,208 				"/>
				<polygon style="fill:#FDFDFD;" points="259.906,205.422 260.743,208 263.452,208 261.261,209.33 262.099,211.775 
					259.906,210.117 257.715,211.675 258.551,209.346 256.361,208 259.07,208 				"/>
				<polygon style="fill:#FDFDFD;" points="271.719,205.422 272.556,208 275.264,208 273.073,209.33 273.909,211.775 
					271.719,210.117 269.527,211.675 270.363,209.346 268.173,208 270.882,208 				"/>
			</g>
		</g>
	</g>
</g>
<g id="Designed_by_freepik">
	<g>
		<g id="XMLID_97_">
			<path id="XMLID_118_" style="fill:#ADE0E3;" d="M181.356,463.004c-0.245,0-0.433,0.085-0.563,0.254
				c-0.134,0.169-0.199,0.419-0.199,0.75v2.383c-0.303-0.33-0.614-0.576-0.934-0.736c-0.319-0.158-0.712-0.239-1.177-0.239
				c-0.804,0-1.452,0.282-1.944,0.846c-0.492,0.563-0.739,1.35-0.739,2.359c0,0.477,0.063,0.919,0.187,1.33
				c0.124,0.41,0.306,0.767,0.547,1.069c0.24,0.304,0.524,0.537,0.853,0.701c0.329,0.163,0.688,0.245,1.074,0.245
				c0.292,0,0.561-0.04,0.806-0.122c0.247-0.08,0.476-0.198,0.686-0.355c0.211-0.155,0.424-0.357,0.641-0.605v0.159
				c0,0.296,0.072,0.523,0.217,0.684c0.144,0.159,0.325,0.239,0.546,0.239c0.225,0,0.408-0.077,0.551-0.23
				c0.143-0.154,0.212-0.385,0.212-0.692v-7.118c0-0.304-0.065-0.532-0.197-0.688C181.789,463.082,181.601,463.004,181.356,463.004z
				 M180.296,469.817c-0.141,0.305-0.327,0.531-0.562,0.68c-0.234,0.147-0.494,0.222-0.778,0.222c-0.279,0-0.537-0.078-0.775-0.235
				c-0.236-0.154-0.422-0.386-0.559-0.693c-0.135-0.308-0.203-0.68-0.203-1.117c0-0.413,0.064-0.777,0.192-1.092
				c0.127-0.313,0.308-0.553,0.54-0.721c0.232-0.167,0.497-0.251,0.793-0.251c0.283,0,0.545,0.082,0.783,0.244
				c0.238,0.165,0.427,0.401,0.567,0.71c0.141,0.309,0.21,0.68,0.21,1.109C180.506,469.129,180.436,469.512,180.296,469.817z"/>
			<path id="XMLID_115_" style="fill:#ADE0E3;" d="M188.693,468.9c0.231-0.121,0.348-0.383,0.348-0.79
				c0-0.437-0.112-0.866-0.336-1.289c-0.225-0.421-0.563-0.765-1.015-1.03c-0.451-0.267-0.992-0.398-1.622-0.398
				c-0.485,0-0.927,0.077-1.324,0.232c-0.398,0.156-0.733,0.38-1.006,0.672c-0.271,0.291-0.478,0.641-0.621,1.049
				c-0.142,0.408-0.212,0.85-0.212,1.327c0,1.013,0.288,1.815,0.863,2.405c0.574,0.591,1.381,0.888,2.418,0.888
				c0.453,0,0.854-0.059,1.202-0.178c0.351-0.119,0.638-0.268,0.869-0.446c0.231-0.18,0.403-0.366,0.518-0.563
				c0.114-0.195,0.172-0.364,0.172-0.511c0-0.166-0.052-0.293-0.155-0.385c-0.102-0.09-0.235-0.136-0.4-0.136
				c-0.153,0-0.273,0.035-0.355,0.107c-0.202,0.189-0.364,0.339-0.49,0.449c-0.126,0.111-0.265,0.215-0.414,0.311
				c-0.149,0.098-0.304,0.166-0.464,0.213c-0.159,0.044-0.336,0.067-0.529,0.067c-0.288,0-0.551-0.07-0.789-0.212
				c-0.238-0.143-0.43-0.353-0.573-0.634c-0.145-0.279-0.219-0.603-0.222-0.97h3.156C188.133,469.08,188.461,469.021,188.693,468.9z
				 M184.555,468.165c0.055-0.545,0.212-0.956,0.471-1.233c0.258-0.279,0.587-0.416,0.99-0.416c0.421,0,0.76,0.136,1.019,0.409
				c0.258,0.274,0.408,0.688,0.447,1.24H184.555z"/>
			<path id="XMLID_114_" style="fill:#ADE0E3;" d="M194.099,468.466c-0.318-0.17-0.727-0.315-1.227-0.438
				c-0.422-0.103-0.753-0.19-0.993-0.26c-0.241-0.07-0.432-0.161-0.574-0.27c-0.142-0.108-0.212-0.246-0.212-0.417
				c0-0.185,0.097-0.34,0.289-0.463c0.193-0.125,0.436-0.187,0.728-0.187c0.284,0,0.509,0.047,0.674,0.141
				c0.166,0.096,0.31,0.223,0.431,0.38c0.151,0.189,0.283,0.33,0.4,0.424c0.115,0.096,0.257,0.143,0.422,0.143
				c0.229,0,0.406-0.061,0.529-0.178c0.124-0.118,0.186-0.271,0.186-0.455c0-0.17-0.058-0.343-0.174-0.521
				c-0.116-0.177-0.285-0.338-0.509-0.483c-0.222-0.146-0.5-0.264-0.834-0.349c-0.331-0.088-0.707-0.131-1.125-0.131
				c-0.533,0-0.986,0.085-1.362,0.258c-0.376,0.171-0.662,0.401-0.855,0.688c-0.193,0.288-0.29,0.595-0.29,0.917
				c0,0.362,0.105,0.668,0.314,0.917c0.209,0.248,0.487,0.448,0.836,0.6c0.35,0.151,0.801,0.296,1.357,0.434
				c0.492,0.119,0.846,0.243,1.062,0.373c0.215,0.131,0.321,0.337,0.321,0.62c0,0.185-0.103,0.35-0.31,0.495
				c-0.207,0.143-0.472,0.215-0.795,0.215c-0.399,0-0.712-0.07-0.943-0.212c-0.23-0.143-0.43-0.356-0.595-0.646
				c-0.082-0.148-0.169-0.266-0.261-0.349c-0.091-0.082-0.22-0.124-0.388-0.124c-0.194,0-0.355,0.063-0.48,0.189
				c-0.128,0.126-0.19,0.277-0.19,0.455c0,0.269,0.099,0.535,0.296,0.801c0.196,0.266,0.503,0.487,0.916,0.665
				c0.414,0.178,0.911,0.267,1.489,0.267c0.607,0,1.123-0.082,1.547-0.245c0.423-0.164,0.744-0.404,0.96-0.722
				c0.218-0.317,0.325-0.699,0.325-1.145c0-0.296-0.081-0.559-0.244-0.789C194.656,468.835,194.415,468.635,194.099,468.466z"/>
			<path id="XMLID_113_" style="fill:#ADE0E3;" d="M196.695,465.403c-0.237,0-0.429,0.081-0.575,0.242
				c-0.149,0.162-0.222,0.403-0.222,0.721v4.618c0,0.314,0.072,0.557,0.222,0.728c0.146,0.169,0.338,0.254,0.575,0.254
				s0.433-0.083,0.586-0.248c0.153-0.166,0.23-0.411,0.23-0.733v-4.665c0-0.286-0.077-0.512-0.23-0.674
				C197.128,465.484,196.933,465.403,196.695,465.403z"/>
			<path id="XMLID_112_" style="fill:#ADE0E3;" d="M196.713,463.074c-0.216,0-0.406,0.072-0.569,0.222
				c-0.164,0.148-0.245,0.335-0.245,0.565c0,0.253,0.079,0.448,0.239,0.586c0.159,0.137,0.352,0.207,0.575,0.207
				c0.217,0,0.405-0.07,0.563-0.211c0.156-0.139,0.236-0.334,0.236-0.582c0-0.257-0.081-0.451-0.242-0.585
				C197.108,463.141,196.923,463.074,196.713,463.074z"/>
			<path id="XMLID_109_" style="fill:#ADE0E3;" d="M203.808,465.403c-0.217,0-0.395,0.077-0.532,0.23
				c-0.139,0.154-0.207,0.371-0.207,0.65v0.22c-0.287-0.375-0.6-0.649-0.935-0.826c-0.335-0.174-0.731-0.263-1.188-0.263
				c-0.382,0-0.732,0.068-1.052,0.203c-0.319,0.138-0.602,0.339-0.846,0.607c-0.243,0.268-0.432,0.596-0.564,0.987
				c-0.132,0.39-0.198,0.828-0.198,1.313c0,0.65,0.109,1.223,0.326,1.721c0.216,0.496,0.526,0.882,0.931,1.158
				c0.404,0.275,0.875,0.413,1.416,0.413c0.447,0,0.836-0.09,1.16-0.272c0.326-0.181,0.612-0.445,0.861-0.793
				c-0.008,0.528-0.019,0.912-0.035,1.15c-0.016,0.239-0.07,0.463-0.163,0.671c-0.093,0.208-0.254,0.372-0.484,0.487
				c-0.23,0.117-0.555,0.176-0.973,0.176c-0.204,0-0.387-0.02-0.544-0.057c-0.158-0.038-0.293-0.095-0.404-0.171
				c-0.112-0.077-0.216-0.17-0.309-0.278c-0.093-0.108-0.182-0.217-0.269-0.322c-0.177-0.209-0.385-0.314-0.621-0.314
				c-0.188,0-0.351,0.061-0.484,0.186c-0.134,0.123-0.201,0.283-0.201,0.48c0,0.261,0.119,0.514,0.356,0.761
				c0.237,0.246,0.573,0.447,1.01,0.604c0.438,0.154,0.936,0.232,1.49,0.232c0.606,0,1.114-0.061,1.522-0.183
				c0.407-0.122,0.737-0.31,0.99-0.562c0.251-0.253,0.436-0.572,0.549-0.957c0.115-0.388,0.173-0.849,0.173-1.385v-4.688
				c0-0.382-0.052-0.675-0.155-0.878C204.326,465.506,204.118,465.403,203.808,465.403z M202.785,469.752
				c-0.151,0.289-0.345,0.506-0.584,0.65c-0.238,0.143-0.491,0.216-0.759,0.216c-0.453,0-0.822-0.167-1.108-0.503
				c-0.286-0.335-0.429-0.831-0.429-1.484c0-0.645,0.139-1.145,0.417-1.495c0.278-0.35,0.645-0.526,1.108-0.526
				c0.473,0,0.855,0.184,1.145,0.551c0.289,0.366,0.434,0.879,0.434,1.536C203.009,469.11,202.934,469.462,202.785,469.752z"/>
			<path id="XMLID_108_" style="fill:#ADE0E3;" d="M211.131,466.467c-0.165-0.338-0.416-0.6-0.751-0.785
				c-0.335-0.186-0.715-0.278-1.141-0.278c-0.438,0-0.824,0.088-1.162,0.263c-0.337,0.176-0.647,0.45-0.931,0.825v-0.194
				c0-0.193-0.034-0.357-0.103-0.491c-0.07-0.134-0.162-0.234-0.275-0.301c-0.114-0.068-0.242-0.102-0.386-0.102
				c-0.232,0-0.415,0.076-0.55,0.228c-0.134,0.152-0.2,0.382-0.2,0.688v4.665c0,0.314,0.076,0.557,0.225,0.728
				c0.15,0.169,0.341,0.254,0.574,0.254c0.24,0,0.437-0.082,0.589-0.245c0.15-0.164,0.227-0.41,0.227-0.736v-2.022
				c0-0.658,0.04-1.106,0.118-1.348c0.11-0.299,0.283-0.535,0.521-0.707c0.235-0.171,0.498-0.257,0.785-0.257
				c0.442,0,0.736,0.143,0.884,0.423c0.148,0.281,0.223,0.689,0.223,1.221v2.69c0,0.314,0.073,0.557,0.226,0.728
				c0.149,0.169,0.344,0.254,0.584,0.254c0.236,0,0.43-0.083,0.576-0.248c0.148-0.166,0.223-0.411,0.223-0.733v-3.004
				c0-0.355-0.017-0.646-0.049-0.875C211.306,466.878,211.238,466.664,211.131,466.467z"/>
			<path id="XMLID_105_" style="fill:#ADE0E3;" d="M217.947,468.9c0.232-0.121,0.349-0.383,0.349-0.79
				c0-0.437-0.112-0.866-0.337-1.289c-0.226-0.421-0.564-0.765-1.015-1.03c-0.452-0.267-0.992-0.398-1.623-0.398
				c-0.484,0-0.926,0.077-1.323,0.232c-0.398,0.156-0.733,0.38-1.005,0.672c-0.273,0.291-0.48,0.641-0.621,1.049
				c-0.142,0.408-0.213,0.85-0.213,1.327c0,1.013,0.288,1.815,0.862,2.405c0.576,0.591,1.382,0.888,2.419,0.888
				c0.453,0,0.854-0.059,1.203-0.178c0.349-0.119,0.637-0.268,0.868-0.446c0.23-0.18,0.403-0.366,0.518-0.563
				c0.114-0.195,0.172-0.364,0.172-0.511c0-0.166-0.051-0.293-0.154-0.385c-0.102-0.09-0.236-0.136-0.401-0.136
				c-0.154,0-0.272,0.035-0.355,0.107c-0.2,0.189-0.364,0.339-0.49,0.449c-0.126,0.111-0.265,0.215-0.413,0.311
				c-0.151,0.098-0.306,0.166-0.464,0.213c-0.161,0.044-0.337,0.067-0.53,0.067c-0.287,0-0.551-0.07-0.789-0.212
				c-0.238-0.143-0.429-0.353-0.573-0.634c-0.145-0.279-0.218-0.603-0.223-0.97h3.158C217.388,469.08,217.714,469.021,217.947,468.9
				z M213.808,468.165c0.057-0.545,0.212-0.956,0.47-1.233c0.258-0.279,0.589-0.416,0.991-0.416c0.422,0,0.761,0.136,1.02,0.409
				c0.258,0.274,0.408,0.688,0.446,1.24H213.808z"/>
			<path id="XMLID_102_" style="fill:#ADE0E3;" d="M224.308,463.004c-0.245,0-0.434,0.085-0.565,0.254
				c-0.131,0.169-0.198,0.419-0.198,0.75v2.383c-0.303-0.33-0.614-0.576-0.934-0.736c-0.318-0.158-0.711-0.239-1.177-0.239
				c-0.804,0-1.452,0.282-1.945,0.846c-0.492,0.563-0.738,1.35-0.738,2.359c0,0.477,0.061,0.919,0.186,1.33
				c0.124,0.41,0.306,0.767,0.546,1.069c0.241,0.304,0.525,0.537,0.855,0.701c0.329,0.163,0.686,0.245,1.074,0.245
				c0.291,0,0.56-0.04,0.806-0.122c0.246-0.08,0.474-0.198,0.686-0.355c0.21-0.155,0.424-0.357,0.641-0.605v0.159
				c0,0.296,0.072,0.523,0.216,0.684c0.145,0.159,0.326,0.239,0.548,0.239c0.225,0,0.407-0.077,0.549-0.23
				c0.142-0.154,0.213-0.385,0.213-0.692v-7.118c0-0.304-0.065-0.532-0.197-0.688C224.739,463.082,224.552,463.004,224.308,463.004z
				 M223.245,469.817c-0.139,0.305-0.327,0.531-0.562,0.68c-0.234,0.147-0.493,0.222-0.776,0.222c-0.28,0-0.538-0.078-0.774-0.235
				c-0.236-0.154-0.424-0.386-0.559-0.693c-0.137-0.308-0.204-0.68-0.204-1.117c0-0.413,0.063-0.777,0.191-1.092
				c0.128-0.313,0.309-0.553,0.541-0.721c0.233-0.167,0.497-0.251,0.793-0.251c0.282,0,0.544,0.082,0.782,0.244
				c0.238,0.165,0.429,0.401,0.567,0.71c0.141,0.309,0.21,0.68,0.21,1.109C223.455,469.129,223.386,469.512,223.245,469.817z"/>
			<path id="XMLID_99_" style="fill:#ADE0E3;" d="M233.649,465.797c-0.404-0.254-0.873-0.382-1.41-0.382
				c-0.465,0-0.856,0.084-1.17,0.251c-0.316,0.167-0.626,0.409-0.93,0.725v-2.466c0-0.296-0.066-0.522-0.2-0.683
				c-0.134-0.158-0.325-0.238-0.574-0.238c-0.235,0-0.42,0.084-0.552,0.251c-0.133,0.167-0.198,0.414-0.198,0.741v7.047
				c0,0.304,0.067,0.533,0.204,0.69c0.136,0.155,0.318,0.232,0.546,0.232c0.226,0,0.411-0.077,0.557-0.232
				c0.146-0.157,0.218-0.387,0.218-0.69v-0.159c0.178,0.204,0.321,0.359,0.43,0.461c0.108,0.104,0.24,0.202,0.394,0.299
				c0.153,0.098,0.339,0.174,0.559,0.233c0.218,0.059,0.451,0.089,0.7,0.089c0.405,0,0.778-0.082,1.114-0.245
				c0.337-0.164,0.623-0.397,0.86-0.696c0.236-0.298,0.416-0.652,0.541-1.06c0.124-0.409,0.187-0.856,0.187-1.345
				c0-0.662-0.112-1.236-0.335-1.718C234.365,466.42,234.053,466.052,233.649,465.797z M232.863,470.19
				c-0.294,0.352-0.644,0.529-1.049,0.529c-0.479,0-0.863-0.174-1.157-0.519c-0.294-0.345-0.439-0.838-0.439-1.48
				c0-0.438,0.068-0.815,0.206-1.132c0.139-0.317,0.327-0.56,0.568-0.727c0.239-0.167,0.514-0.251,0.822-0.251
				c0.298,0,0.561,0.084,0.786,0.251c0.224,0.168,0.397,0.405,0.519,0.713c0.123,0.307,0.184,0.675,0.184,1.1
				C233.304,469.331,233.155,469.836,232.863,470.19z"/>
			<path id="XMLID_98_" style="fill:#ADE0E3;" d="M240.564,465.501c-0.111-0.066-0.229-0.098-0.352-0.098
				c-0.17,0-0.301,0.029-0.393,0.09c-0.092,0.058-0.18,0.172-0.264,0.342c-0.082,0.17-0.174,0.405-0.277,0.703l-1.295,3.695
				l-1.365-3.973c-0.091-0.276-0.194-0.487-0.313-0.636c-0.118-0.147-0.294-0.222-0.527-0.222c-0.134,0-0.262,0.035-0.387,0.107
				c-0.124,0.069-0.222,0.165-0.293,0.284c-0.07,0.116-0.105,0.245-0.105,0.383c0,0.131,0.06,0.34,0.183,0.627l1.985,5.001
				l-0.146,0.361c-0.11,0.264-0.208,0.464-0.292,0.598c-0.086,0.139-0.182,0.234-0.287,0.288c-0.106,0.056-0.253,0.084-0.438,0.084
				c-0.074,0-0.163-0.013-0.265-0.036c-0.083-0.024-0.168-0.036-0.255-0.036c-0.22,0-0.388,0.051-0.499,0.151
				c-0.113,0.1-0.169,0.244-0.169,0.429c0,0.271,0.118,0.459,0.354,0.563c0.236,0.102,0.592,0.152,1.064,0.152
				c0.484,0,0.868-0.073,1.155-0.222c0.285-0.147,0.516-0.36,0.688-0.636c0.174-0.275,0.352-0.656,0.533-1.141l2.105-5.51
				c0.051-0.142,0.094-0.282,0.129-0.419c0.037-0.139,0.061-0.245,0.078-0.32c0-0.122-0.031-0.238-0.092-0.348
				C240.764,465.653,240.678,465.566,240.564,465.501z"/>
		</g>
		<g id="XMLID_61_">
			<g id="XMLID_76_">
				<path id="XMLID_96_" style="fill:#ADE0E3;" d="M262.88,462.999c-0.531,0-0.949,0.068-1.255,0.203
					c-0.307,0.137-0.525,0.354-0.652,0.65c-0.129,0.3-0.191,0.7-0.191,1.207v0.485h-0.385c-0.541,0-0.811,0.19-0.811,0.579
					c0,0.174,0.064,0.315,0.195,0.422c0.131,0.11,0.314,0.163,0.557,0.163h0.443v4.277c0,0.316,0.074,0.559,0.227,0.727
					c0.154,0.169,0.344,0.253,0.572,0.253c0.242,0,0.436-0.084,0.587-0.253c0.154-0.167,0.23-0.41,0.23-0.727v-4.277h0.393
					c0.291,0,0.516-0.035,0.678-0.107c0.166-0.07,0.244-0.239,0.244-0.501c0-0.371-0.305-0.556-0.922-0.556h-0.393v-0.386
					c0-0.32,0.043-0.565,0.121-0.736c0.086-0.171,0.271-0.259,0.563-0.259c0.107,0,0.24,0.014,0.389,0.034
					c0.154,0.026,0.266,0.038,0.328,0.038c0.135,0,0.252-0.055,0.348-0.159c0.1-0.107,0.148-0.235,0.148-0.384
					C264.294,463.228,263.825,462.999,262.88,462.999z"/>
				<path id="XMLID_95_" style="fill:#ADE0E3;" d="M268.019,465.654c-0.318-0.17-0.645-0.254-0.986-0.254
					c-0.34,0-0.607,0.084-0.814,0.254c-0.201,0.17-0.398,0.419-0.59,0.752c-0.014-0.333-0.08-0.582-0.199-0.752
					c-0.117-0.17-0.31-0.254-0.58-0.254c-0.523,0-0.785,0.363-0.785,1.089v4.496c0,0.321,0.078,0.565,0.225,0.729
					c0.148,0.168,0.34,0.25,0.578,0.25c0.234,0,0.43-0.081,0.582-0.246c0.15-0.163,0.233-0.409,0.233-0.733v-1.351
					c0-0.484,0.014-0.896,0.045-1.233c0.033-0.336,0.09-0.628,0.17-0.874c0.084-0.242,0.201-0.424,0.352-0.552
					c0.148-0.122,0.344-0.185,0.58-0.185c0.17,0,0.371,0.035,0.598,0.107c0.227,0.073,0.371,0.112,0.434,0.112
					c0.156,0,0.301-0.064,0.438-0.194c0.135-0.125,0.203-0.29,0.203-0.486C268.499,466.051,268.341,465.824,268.019,465.654z"/>
				<path id="XMLID_92_" style="fill:#ADE0E3;" d="M274.081,468.898c0.232-0.121,0.35-0.383,0.35-0.788
					c0-0.439-0.111-0.866-0.338-1.291c-0.221-0.421-0.563-0.766-1.014-1.028c-0.451-0.268-0.992-0.402-1.621-0.402
					c-0.486,0-0.928,0.078-1.324,0.231c-0.4,0.157-0.732,0.38-1.004,0.673c-0.273,0.293-0.482,0.641-0.621,1.05
					c-0.145,0.409-0.217,0.852-0.217,1.328c0,1.013,0.291,1.816,0.865,2.408c0.574,0.591,1.381,0.886,2.42,0.886
					c0.451,0,0.854-0.061,1.201-0.179c0.348-0.116,0.637-0.268,0.871-0.444c0.23-0.181,0.402-0.366,0.52-0.564
					c0.111-0.193,0.166-0.363,0.166-0.509c0-0.167-0.047-0.293-0.152-0.385c-0.103-0.093-0.236-0.138-0.402-0.138
					c-0.152,0-0.27,0.037-0.355,0.107c-0.201,0.189-0.365,0.339-0.49,0.447c-0.127,0.113-0.264,0.218-0.414,0.311
					c-0.15,0.097-0.305,0.169-0.463,0.212c-0.16,0.048-0.334,0.069-0.529,0.069c-0.289,0-0.549-0.07-0.789-0.211
					c-0.238-0.145-0.428-0.355-0.576-0.634c-0.143-0.278-0.215-0.603-0.221-0.97h3.158
					C273.522,469.079,273.849,469.02,274.081,468.898z M269.942,468.162c0.055-0.544,0.213-0.953,0.471-1.231
					c0.258-0.279,0.59-0.416,0.99-0.416c0.424,0,0.76,0.135,1.02,0.41c0.26,0.272,0.406,0.686,0.445,1.237H269.942z"/>
				<path id="XMLID_89_" style="fill:#ADE0E3;" d="M280.794,468.898c0.23-0.121,0.352-0.383,0.352-0.788
					c0-0.439-0.117-0.866-0.34-1.291c-0.221-0.421-0.561-0.766-1.01-1.028c-0.457-0.268-0.998-0.402-1.627-0.402
					c-0.484,0-0.928,0.078-1.324,0.231c-0.398,0.157-0.734,0.38-1.006,0.673c-0.272,0.293-0.479,0.641-0.619,1.05
					c-0.143,0.409-0.217,0.852-0.217,1.328c0,1.013,0.291,1.816,0.865,2.408c0.578,0.591,1.381,0.886,2.42,0.886
					c0.451,0,0.855-0.061,1.203-0.179c0.346-0.116,0.639-0.268,0.869-0.444c0.232-0.181,0.406-0.366,0.516-0.564
					c0.117-0.193,0.17-0.363,0.17-0.509c0-0.167-0.045-0.293-0.148-0.385c-0.105-0.093-0.238-0.138-0.404-0.138
					c-0.152,0-0.27,0.037-0.355,0.107c-0.201,0.189-0.365,0.339-0.49,0.447c-0.125,0.113-0.262,0.218-0.412,0.311
					c-0.152,0.097-0.307,0.169-0.467,0.212c-0.158,0.048-0.334,0.069-0.525,0.069c-0.291,0-0.555-0.07-0.793-0.211
					c-0.236-0.145-0.428-0.355-0.572-0.634c-0.143-0.278-0.217-0.603-0.221-0.97h3.156
					C280.235,469.079,280.561,469.02,280.794,468.898z M276.657,468.162c0.053-0.544,0.209-0.953,0.467-1.231
					c0.26-0.279,0.59-0.416,0.992-0.416c0.424,0,0.76,0.135,1.022,0.41c0.256,0.272,0.406,0.686,0.445,1.237H276.657z"/>
				<path id="XMLID_86_" style="fill:#ADE0E3;" d="M286.78,465.797c-0.418-0.256-0.879-0.386-1.371-0.386
					c-0.414,0-0.787,0.09-1.111,0.267c-0.328,0.175-0.645,0.45-0.947,0.824v-0.193c0-0.296-0.072-0.518-0.217-0.676
					c-0.143-0.154-0.328-0.232-0.559-0.232c-0.232,0-0.416,0.078-0.551,0.227c-0.133,0.154-0.199,0.381-0.199,0.688v6.968
					c0,0.353,0.051,0.618,0.146,0.804c0.1,0.182,0.299,0.273,0.604,0.273c0.516,0,0.775-0.358,0.775-1.065v-2.424
					c0.285,0.357,0.584,0.633,0.897,0.814c0.313,0.186,0.701,0.278,1.162,0.278c0.381,0,0.738-0.076,1.074-0.227
					c0.332-0.152,0.619-0.371,0.863-0.651c0.246-0.282,0.439-0.629,0.578-1.046c0.141-0.416,0.211-0.874,0.211-1.37
					c0-0.674-0.123-1.256-0.367-1.751C287.528,466.428,287.2,466.054,286.78,465.797z M286.306,469.783
					c-0.135,0.311-0.318,0.544-0.549,0.702c-0.229,0.152-0.479,0.231-0.744,0.231c-0.453,0-0.824-0.179-1.129-0.534
					c-0.305-0.357-0.457-0.859-0.457-1.498c0-0.684,0.154-1.199,0.459-1.552c0.307-0.348,0.682-0.525,1.127-0.525
					c0.279,0,0.537,0.083,0.766,0.246c0.229,0.163,0.41,0.397,0.539,0.702c0.131,0.305,0.197,0.672,0.197,1.097
					C286.515,469.094,286.444,469.472,286.306,469.783z"/>
				<path id="XMLID_85_" style="fill:#ADE0E3;" d="M289.743,465.4c-0.236,0-0.426,0.079-0.576,0.243
					c-0.146,0.163-0.223,0.402-0.223,0.719v4.624c0,0.311,0.076,0.552,0.223,0.726c0.15,0.169,0.34,0.253,0.576,0.253
					c0.238,0,0.432-0.082,0.586-0.25c0.154-0.164,0.23-0.408,0.23-0.729v-4.671c0-0.284-0.076-0.509-0.23-0.672
					C290.175,465.479,289.981,465.4,289.743,465.4z"/>
				<path id="XMLID_84_" style="fill:#ADE0E3;" d="M289.759,463.069c-0.215,0-0.404,0.075-0.568,0.222
					c-0.164,0.149-0.246,0.337-0.246,0.565c0,0.252,0.08,0.446,0.24,0.584c0.158,0.137,0.35,0.208,0.574,0.208
					c0.221,0,0.408-0.071,0.564-0.209c0.158-0.139,0.236-0.334,0.236-0.583c0-0.256-0.082-0.452-0.244-0.588
					C290.157,463.136,289.972,463.069,289.759,463.069z"/>
				<path id="XMLID_83_" style="fill:#ADE0E3;" d="M297.073,470.41l-1.656-2.604l0.857-0.784c0.436-0.395,0.656-0.712,0.656-0.948
					c0-0.191-0.068-0.353-0.201-0.481c-0.135-0.127-0.303-0.191-0.506-0.191c-0.168,0-0.311,0.043-0.43,0.13
					c-0.121,0.085-0.289,0.25-0.516,0.484l-1.814,1.905v-3.917c0-0.328-0.074-0.579-0.221-0.748c-0.145-0.17-0.342-0.256-0.59-0.256
					c-0.254,0-0.455,0.093-0.592,0.282c-0.137,0.188-0.207,0.46-0.207,0.816v6.888c0,0.321,0.072,0.565,0.215,0.729
					c0.139,0.168,0.336,0.25,0.584,0.25c0.213,0,0.404-0.084,0.565-0.253c0.164-0.167,0.246-0.405,0.246-0.716v-1.285l0.877-0.827
					l1.422,2.344c0.182,0.277,0.328,0.47,0.434,0.577c0.105,0.109,0.26,0.16,0.457,0.16c0.225,0,0.412-0.073,0.551-0.221
					c0.141-0.15,0.213-0.35,0.213-0.607c0-0.089-0.029-0.188-0.082-0.287C297.282,470.749,297.192,470.604,297.073,470.41z"/>
				<path id="XMLID_82_" style="fill:#ADE0E3;" d="M299.255,470.185c-0.248,0-0.457,0.086-0.627,0.261
					c-0.17,0.172-0.256,0.379-0.256,0.619c0,0.286,0.092,0.508,0.267,0.663c0.178,0.158,0.389,0.237,0.631,0.237
					c0.236,0,0.441-0.079,0.621-0.24c0.176-0.157,0.262-0.379,0.262-0.66c0-0.242-0.086-0.452-0.262-0.623
					C299.712,470.271,299.503,470.185,299.255,470.185z"/>
				<path id="XMLID_81_" style="fill:#ADE0E3;" d="M306.61,469.262c-0.164,0-0.305,0.054-0.42,0.155
					c-0.113,0.104-0.217,0.244-0.316,0.425c-0.176,0.309-0.379,0.536-0.613,0.686c-0.23,0.149-0.508,0.225-0.83,0.225
					c-0.24,0-0.461-0.045-0.664-0.141c-0.201-0.094-0.371-0.229-0.514-0.407c-0.145-0.179-0.25-0.397-0.324-0.65
					c-0.074-0.255-0.113-0.534-0.113-0.838c0-0.645,0.146-1.157,0.438-1.527c0.291-0.374,0.68-0.56,1.154-0.56
					c0.33,0,0.603,0.075,0.816,0.226c0.219,0.147,0.422,0.375,0.621,0.672c0.107,0.157,0.207,0.269,0.297,0.337
					c0.09,0.069,0.201,0.105,0.338,0.105c0.199,0,0.375-0.068,0.522-0.202c0.143-0.135,0.213-0.299,0.213-0.489
					c0-0.192-0.063-0.396-0.193-0.615c-0.125-0.217-0.312-0.422-0.551-0.617c-0.246-0.192-0.539-0.352-0.889-0.472
					c-0.352-0.124-0.732-0.185-1.15-0.185c-0.672,0-1.256,0.139-1.742,0.418c-0.482,0.276-0.854,0.67-1.109,1.178
					c-0.256,0.509-0.385,1.093-0.385,1.758c0,0.978,0.281,1.758,0.84,2.34c0.559,0.58,1.338,0.873,2.338,0.873
					c0.467,0,0.891-0.066,1.264-0.191c0.377-0.125,0.686-0.293,0.93-0.501c0.248-0.206,0.434-0.423,0.551-0.652
					c0.123-0.229,0.184-0.444,0.184-0.644c0-0.169-0.066-0.33-0.199-0.479C306.974,469.338,306.81,469.262,306.61,469.262z"/>
				<path id="XMLID_78_" style="fill:#ADE0E3;" d="M313.397,466.31c-0.289-0.289-0.627-0.515-1.023-0.672
					c-0.4-0.159-0.844-0.237-1.332-0.237c-0.48,0-0.92,0.078-1.32,0.232c-0.396,0.158-0.734,0.379-1.016,0.667
					c-0.279,0.286-0.496,0.634-0.646,1.04c-0.145,0.407-0.223,0.854-0.223,1.344c0,0.483,0.076,0.926,0.219,1.327
					c0.15,0.399,0.369,0.747,0.654,1.043c0.283,0.291,0.625,0.519,1.012,0.674c0.391,0.158,0.832,0.238,1.32,0.238
					c0.49,0,0.934-0.08,1.332-0.233c0.393-0.157,0.732-0.381,1.016-0.673c0.285-0.289,0.5-0.639,0.652-1.045
					c0.147-0.407,0.223-0.852,0.223-1.331c0-0.486-0.076-0.928-0.221-1.334C313.897,466.95,313.681,466.604,313.397,466.31z
					 M312.21,470.21c-0.289,0.371-0.68,0.555-1.168,0.555c-0.322,0-0.6-0.085-0.842-0.251c-0.238-0.168-0.422-0.408-0.551-0.727
					c-0.129-0.314-0.191-0.682-0.191-1.104c0-0.426,0.064-0.8,0.195-1.12c0.129-0.319,0.315-0.561,0.553-0.725
					c0.242-0.162,0.52-0.244,0.836-0.244c0.488,0,0.879,0.182,1.168,0.553c0.287,0.366,0.434,0.878,0.434,1.536
					C312.644,469.331,312.497,469.842,312.21,470.21z"/>
				<path id="XMLID_77_" style="fill:#ADE0E3;" d="M323.28,465.673c-0.32-0.172-0.703-0.262-1.143-0.262
					c-0.377,0-0.723,0.081-1.033,0.24c-0.313,0.161-0.605,0.407-0.879,0.735c-0.191-0.324-0.428-0.569-0.723-0.732
					c-0.289-0.161-0.637-0.243-1.043-0.243c-0.393,0-0.744,0.079-1.065,0.24c-0.32,0.156-0.619,0.402-0.902,0.735v-0.152
					c0-0.26-0.072-0.464-0.219-0.614c-0.15-0.143-0.334-0.22-0.555-0.22c-0.227,0-0.41,0.078-0.555,0.237
					c-0.139,0.157-0.209,0.388-0.209,0.691v4.618c0,0.335,0.078,0.589,0.234,0.762c0.156,0.17,0.355,0.257,0.603,0.257
					c0.246,0,0.445-0.087,0.6-0.257c0.148-0.173,0.225-0.427,0.225-0.762v-2.18c0-0.681,0.086-1.202,0.254-1.561
					c0.166-0.368,0.514-0.548,1.041-0.548c0.264,0,0.459,0.071,0.58,0.219c0.121,0.142,0.197,0.329,0.227,0.55
					c0.027,0.225,0.039,0.542,0.039,0.948v2.571c0,0.34,0.078,0.591,0.23,0.765c0.148,0.169,0.35,0.254,0.594,0.254
					c0.254,0,0.451-0.085,0.607-0.254c0.156-0.174,0.228-0.425,0.228-0.765v-2.146c0-0.691,0.063-1.173,0.178-1.446
					c0.109-0.208,0.26-0.381,0.449-0.506c0.191-0.124,0.393-0.19,0.607-0.19c0.262,0,0.461,0.071,0.594,0.214
					c0.125,0.142,0.207,0.317,0.236,0.526c0.029,0.209,0.043,0.484,0.043,0.834v2.714c0,0.335,0.078,0.589,0.234,0.762
					c0.156,0.17,0.355,0.257,0.6,0.257c0.252,0,0.459-0.085,0.609-0.254c0.154-0.174,0.23-0.425,0.23-0.765v-3.151
					c0-0.626-0.068-1.086-0.207-1.38C323.837,466.095,323.599,465.846,323.28,465.673z"/>
			</g>
			<g id="XMLID_62_">
				<path id="XMLID_75_" style="fill:#ADE0E3;" d="M245.291,468.292c-0.002-0.002-0.002-0.005-0.002-0.01
					C245.289,468.287,245.289,468.29,245.291,468.292z"/>
				<path id="XMLID_74_" style="fill:#ADE0E3;" d="M245.373,468.808L245.373,468.808c-0.029-0.145-0.055-0.292-0.072-0.435
					C245.318,468.518,245.344,468.664,245.373,468.808z"/>
				<path id="XMLID_73_" style="fill:#ADE0E3;" d="M245.906,470.307c-0.004-0.007-0.006-0.014-0.01-0.021
					C245.9,470.293,245.902,470.3,245.906,470.307z"/>
				<path id="XMLID_72_" style="fill:#ADE0E3;" d="M245.855,470.207c-0.014-0.027-0.027-0.056-0.041-0.083
					C245.828,470.153,245.842,470.18,245.855,470.207z"/>
				<path id="XMLID_71_" style="fill:#ADE0E3;" d="M245.521,469.386c0.08,0.249,0.174,0.49,0.285,0.721
					c-0.113-0.235-0.205-0.477-0.283-0.721H245.521z"/>
				<path id="XMLID_70_" style="fill:#ADE0E3;" d="M250.732,461.558l-0.076-0.259c0.299-0.063,0.523-0.328,0.523-0.645
					c0-0.361-0.297-0.656-0.658-0.656c-0.365,0-0.658,0.295-0.658,0.656c0,0.316,0.225,0.582,0.52,0.645l0.084,0.288
					c-1.018,0.14-1.826,0.536-1.826,0.536l0.143,0.44c0.613-0.206,1.148-0.33,1.635-0.382c0.473-0.051,0.83-0.072,1.121-0.072
					c0.313,0,0.543,0.024,0.807,0.068l0.074-0.474C252.42,461.703,251.691,461.478,250.732,461.558z"/>
				<path id="XMLID_69_" style="fill:#ADE0E3;" d="M245.469,464.055c-0.018,0.023-0.494,0.463-0.871,1.273
					c-0.016-0.024-0.035-0.05-0.057-0.073c-0.111-0.124-0.271-0.187-0.471-0.183c-0.004,0-0.008,0-0.01,0
					c-0.123,0-0.209-0.042-0.266-0.093c0.057-0.07,0.09-0.159,0.09-0.257c0-0.229-0.188-0.417-0.418-0.417
					c-0.229,0-0.416,0.188-0.416,0.417c0,0.23,0.188,0.415,0.416,0.415c0.035,0,0.07-0.005,0.104-0.012
					c0.104,0.113,0.266,0.213,0.502,0.208c0.123-0.002,0.215,0.03,0.273,0.097c0.07,0.075,0.094,0.184,0.1,0.266
					c-0.002,0.002-0.002,0.004-0.002,0.004c-0.271,0.74-0.193,1.661-0.193,1.661l0.658,0.025c0.014-0.335,0.061-0.921,0.23-1.387
					c0.328-0.903,0.74-1.466,0.756-1.49l0.004-0.005c0.023-0.031,0.045-0.061,0.068-0.089l-0.193-0.141L245.469,464.055z"/>
				<path id="XMLID_68_" style="fill:#ADE0E3;" d="M257.266,462.658c-0.23,0-0.418,0.186-0.418,0.416
					c0,0.036,0.006,0.07,0.016,0.104c-0.113,0.104-0.213,0.266-0.209,0.504c0.002,0.123-0.031,0.212-0.098,0.272
					c-0.053,0.047-0.117,0.071-0.184,0.087c-0.49-0.686-1.094-1.105-1.094-1.105l-0.471,0.507c0.357,0.325,0.721,0.731,1.076,1.239
					c0.244,0.351,0.496,0.803,0.707,1.253l0.637-0.303c0,0-0.291-0.719-0.701-1.363c0.072-0.025,0.143-0.063,0.207-0.12
					c0.125-0.112,0.185-0.271,0.182-0.472c0-0.129,0.041-0.217,0.092-0.274c0.072,0.054,0.16,0.089,0.258,0.089
					c0.23,0,0.416-0.187,0.416-0.417C257.682,462.845,257.496,462.658,257.266,462.658z"/>
				<path id="XMLID_67_" style="fill:#ADE0E3;" d="M255.611,468.386c-0.877,0.427-2.32,0.992-4.221,1.257
					c-0.748,0.104-1.471,0.142-2.135,0.142c-0.865,0-1.631-0.064-2.219-0.139c-0.668-0.084-1.191-0.188-1.514-0.26
					c0.078,0.244,0.17,0.485,0.283,0.721c0.002,0.006,0.004,0.013,0.008,0.018c0.014,0.027,0.027,0.056,0.041,0.083
					c0.014,0.027,0.027,0.055,0.041,0.078c0.004,0.008,0.006,0.015,0.01,0.021c0.188,0.355,0.416,0.682,0.672,0.964
					c0.896,0.98,1.811,1.135,1.818,1.137l0.014,0.002l0.014,0.005c0.008,0.003,0.818,0.264,2.051,0.264
					c1.211,0,2.398-0.243,3.531-0.726c0.838-0.43,1.633-1.081,2.025-1.662c0.305-0.45,0.523-0.93,0.654-1.428
					c0.068-0.265,0.123-0.689,0.09-1.136C256.529,467.893,256.139,468.129,255.611,468.386z"/>
				<path id="XMLID_63_" style="fill:#ADE0E3;" d="M252.313,462.527c-0.262-0.044-0.475-0.068-0.773-0.068
					c-0.277,0-0.625,0.022-1.084,0.07c-0.465,0.049-0.98,0.17-1.578,0.371c-0.84,0.281-1.598,0.722-2.195,1.275l-0.02,0.018
					c-0.09,0.081-0.273,0.253-0.486,0.523c-0.025,0.037-0.406,0.576-0.707,1.402c-0.225,0.619-0.215,1.521-0.215,1.531v0.001
					c0,0.211,0.012,0.421,0.035,0.63c0,0.005,0,0.008,0.002,0.01c0.002,0.027,0.006,0.053,0.01,0.08
					c0.018,0.143,0.043,0.29,0.072,0.435c0.438,0.112,3.035,0.719,5.945,0.314c1.822-0.253,3.205-0.792,4.045-1.199
					c0.697-0.339,1.146-0.645,1.32-0.771c-0.174-0.64-0.65-1.644-1.086-2.27C254.35,463.099,253.004,462.641,252.313,462.527z
					 M248.682,467.766c-0.967,0-1.752-0.784-1.752-1.753c0-0.968,0.785-1.753,1.752-1.753c0.969,0,1.756,0.785,1.756,1.753
					C250.438,466.981,249.65,467.766,248.682,467.766z M253.813,466.474c-0.598,0-1.082-0.487-1.082-1.086
					c0-0.6,0.484-1.085,1.082-1.085c0.6,0,1.086,0.485,1.086,1.085C254.898,465.986,254.412,466.474,253.813,466.474z"/>
			</g>
		</g>
	</g>
</g>
</svg>
