<svg xmlns="http://www.w3.org/2000/svg" width="1400" height="700" viewBox="0 0 400 400" fill="none">
  <g stroke-width="1.5" stroke-linecap="round">
    <!-- Estrellas -->
    <path d="M20 20l3 6 6 1-5 4 2 6-6-3-6 3 2-6-5-4 6-1z" stroke="#194A8D" opacity="0.8"/>
    <path d="M180 60l2 4 4 1-3 3 1 4-4-2-4 2 1-4-3-3 4-1z" stroke="#FF8C00" opacity="0.8"/>
    <path d="M180 40l2 4 4 1-3 3 1 4-4-2-4 2 1-4-3-3 4-1z" stroke="#D42D3D"opacity="0.8"/>

    <!-- Círculos -->
    <circle cx="80" cy="120" r="6" stroke="#D42D3D" opacity="0.8"/>
    <circle cx="220" cy="300" r="4" stroke="#194A8D" opacity="0.8"/>
    <circle cx="250" cy="100" r="5" stroke="#FF8C00" opacity="0.8"/>

    <!-- Cruces -->
    <path d="M300 50l8 8M308 50l-8 8" stroke="#194A8D" opacity="0.6"/>
    <path d="M60 40l8 8M68 340l-8 8" stroke="#D42D3D" opacity="0.6"/>
    <path d="M30 340l8 8M68 340l-8 8" stroke="#FF8C00"opacity="0.6"/>

    <!-- Rayas onduladas -->
    <path d="M100 200q5 5 10 0t10 0q5 5 10 0" stroke="#FF8C00" opacity="0.7" />
    <path d="M250 150q4 6 8 0t8 0q4 6 8 0" stroke="#194A8D" opacity="0.7" />

    <!-- Cuadrados -->
    <rect x="320" y="260" width="8" height="8" rx="1" stroke="#D42D3D" opacity="0.8"/>
    <rect x="150" y="320" width="10" height="10" rx="2" stroke="#FF8C00" opacity="0.8"/>

    <!-- Líneas aleatorias -->
    <path d="M20 380h12M200 20h8M360 180h10" stroke="#194A8D" opacity="0.7" />
  </g>
</svg>
