<!-- src/assets/patterns/feminist-bg.svg -->
<svg xmlns="http://www.w3.org/2000/svg" width="1200" height="800" viewBox="0 0 1200 800" preserveAspectRatio="xMidYMid slice">
  <rect width="1200" height="800" fill="#FFFFFF"/>
  <!-- símbolos suaves en distintos tamaños y opacidades -->
  <g fill="none" stroke-linecap="round" stroke-linejoin="round">
    <!-- círculos decorativos -->
    <circle cx="80" cy="120" r="30" fill="#EDE7F6" />
    <circle cx="220" cy="60" r="18" fill="#F3E8FF" />
    <circle cx="1060" cy="200" r="24" fill="#EEE" />
    <!-- símbolo venus (femenino) - violeta ligero -->
    <g transform="translate(200,340) scale(0.8)" opacity="0.95">
      <circle cx="0" cy="0" r="34" fill="#E5DBFF" stroke="#8A63D6" stroke-width="3"/>
      <line x1="0" y1="34" x2="0" y2="72" stroke="#8A63D6" stroke-width="3"/>
      <line x1="-16" y1="56" x2="16" y2="56" stroke="#8A63D6" stroke-width="3"/>
    </g>
    <!-- puño en círculo (estilizado) -->
    <g transform="translate(920,140) scale(0.7)" opacity="0.9">
      <circle cx="0" cy="0" r="40" fill="#F2EAFB" stroke="#6E3FA3" stroke-width="2"/>
      <path d="M-10 4 q6 -12 18 -10 q-2 6 6 12 q-6 4 -8 12 q-8 -2 -12 -6 q-2 -6 -4 -10" fill="#6E3FA3"/>
    </g>
    <!-- pequeñas cruces y estrellas grises -->
    <g stroke="#BDBDBD" opacity="0.7" stroke-width="1.2">
      <path d="M420 80 l10 10 M430 80 l-10 10" />
      <path d="M560 220 l6 6 M566 220 l-6 6" />
      <circle cx="760" cy="320" r="10" fill="#F5F5F5" />
    </g>

    <!-- líneas onduladas decorativas en violeta suave -->
    <path d="M20 700 q80 -40 160 0 q80 40 160 0 q80 -40 160 0" stroke="#E9E0FF" stroke-width="6" fill="none" opacity="0.7"/>
    <path d="M0 600 q200 -80 400 0 q200 80 400 0" stroke="#F7F1FF" stroke-width="8" fill="none" opacity="0.5"/>
  </g>
</svg>
